<mxfile host="app.diagrams.net" modified="2022-02-06T12:34:02.465Z" agent="5.0 (Windows NT 10.0) AppleWebKit/537.36 (KHTML, like Gecko) Chrome/96.0.4664.174 YaBrowser/22.1.2.833 Yowser/2.5 Safari/537.36" etag="uyG-gp4WDBAVSST_qflN" version="16.5.3" type="github">
  <diagram id="kgpKYQtTHZ0yAKxKKP6v" name="Page-1">
    <mxGraphModel dx="7880" dy="4900" grid="1" gridSize="10" guides="1" tooltips="1" connect="1" arrows="1" fold="1" page="1" pageScale="1" pageWidth="850" pageHeight="1100" math="0" shadow="0">
      <root>
        <mxCell id="0" />
        <mxCell id="1" parent="0" />
        <mxCell id="aoM_VOd6xSWKAF-DBPvm-11" value="Директор по персоналу" style="swimlane;strokeColor=#CC0000;" vertex="1" parent="1">
          <mxGeometry x="500" y="320" width="180" height="830" as="geometry" />
        </mxCell>
        <mxCell id="aoM_VOd6xSWKAF-DBPvm-12" value="Дивизионный директор" style="swimlane;strokeColor=#CC0000;" vertex="1" parent="1">
          <mxGeometry x="680" y="320" width="180" height="830" as="geometry" />
        </mxCell>
        <mxCell id="aoM_VOd6xSWKAF-DBPvm-13" value="Аудитор" style="swimlane;strokeColor=#CC0000;" vertex="1" parent="1">
          <mxGeometry x="860" y="320" width="180" height="830" as="geometry" />
        </mxCell>
        <mxCell id="aoM_VOd6xSWKAF-DBPvm-14" value="Заместитель директора магазина" style="swimlane;strokeColor=#CC0000;" vertex="1" parent="1">
          <mxGeometry x="1040" y="320" width="230" height="830" as="geometry">
            <mxRectangle x="890" y="320" width="230" height="23" as="alternateBounds" />
          </mxGeometry>
        </mxCell>
        <mxCell id="aoM_VOd6xSWKAF-DBPvm-15" value="Заведующий складом" style="swimlane;strokeColor=#CC0000;" vertex="1" parent="1">
          <mxGeometry x="1270" y="320" width="190" height="830" as="geometry" />
        </mxCell>
        <mxCell id="aoM_VOd6xSWKAF-DBPvm-17" value="Менеджер по подбору&#xa;персонала " style="swimlane;strokeColor=#CC0000;" vertex="1" parent="1">
          <mxGeometry x="1650" y="320" width="520" height="830" as="geometry" />
        </mxCell>
        <mxCell id="aoM_VOd6xSWKAF-DBPvm-312" value="Назначить кандидата на задачу в 1С" style="whiteSpace=wrap;html=1;fontSize=14;fontFamily=Times New Roman;rounded=1;" vertex="1" parent="aoM_VOd6xSWKAF-DBPvm-17">
          <mxGeometry x="50" y="270" width="120" height="60" as="geometry" />
        </mxCell>
        <mxCell id="aoM_VOd6xSWKAF-DBPvm-457" value="" style="edgeStyle=orthogonalEdgeStyle;rounded=0;orthogonalLoop=1;jettySize=auto;html=1;fontFamily=Times New Roman;fontSize=14;fontColor=#000000;strokeColor=#67AB9F;entryX=0.75;entryY=0;entryDx=0;entryDy=0;" edge="1" parent="aoM_VOd6xSWKAF-DBPvm-17" source="aoM_VOd6xSWKAF-DBPvm-332" target="aoM_VOd6xSWKAF-DBPvm-337">
          <mxGeometry relative="1" as="geometry">
            <mxPoint x="110" y="600.0000000000002" as="targetPoint" />
            <Array as="points">
              <mxPoint x="140" y="740" />
              <mxPoint x="140" y="740" />
            </Array>
          </mxGeometry>
        </mxCell>
        <mxCell id="aoM_VOd6xSWKAF-DBPvm-332" value="Выяснить причину неявки стажера" style="whiteSpace=wrap;html=1;fontSize=14;fontFamily=Times New Roman;rounded=1;fillColor=#E6E6E6;" vertex="1" parent="aoM_VOd6xSWKAF-DBPvm-17">
          <mxGeometry x="50" y="680" width="120" height="60" as="geometry" />
        </mxCell>
        <mxCell id="aoM_VOd6xSWKAF-DBPvm-337" value="Скорректировать дату обучения в 1С" style="whiteSpace=wrap;html=1;fontSize=14;fontFamily=Times New Roman;rounded=1;" vertex="1" parent="aoM_VOd6xSWKAF-DBPvm-17">
          <mxGeometry x="50" y="760" width="120" height="60" as="geometry" />
        </mxCell>
        <mxCell id="aoM_VOd6xSWKAF-DBPvm-338" value="" style="edgeStyle=orthogonalEdgeStyle;rounded=0;orthogonalLoop=1;jettySize=auto;html=1;fontFamily=Times New Roman;fontSize=14;strokeColor=#B5739D;" edge="1" parent="aoM_VOd6xSWKAF-DBPvm-17" source="aoM_VOd6xSWKAF-DBPvm-332" target="aoM_VOd6xSWKAF-DBPvm-337">
          <mxGeometry relative="1" as="geometry" />
        </mxCell>
        <mxCell id="aoM_VOd6xSWKAF-DBPvm-16" value="Заведующий производством" style="swimlane;strokeColor=#CC0000;" vertex="1" parent="aoM_VOd6xSWKAF-DBPvm-17">
          <mxGeometry x="-190" width="190" height="830" as="geometry" />
        </mxCell>
        <mxCell id="aoM_VOd6xSWKAF-DBPvm-519" value="" style="edgeStyle=orthogonalEdgeStyle;rounded=0;orthogonalLoop=1;jettySize=auto;html=1;fontFamily=Times New Roman;fontSize=14;fontColor=#000000;strokeColor=#0000CC;entryX=0.25;entryY=0;entryDx=0;entryDy=0;" edge="1" parent="aoM_VOd6xSWKAF-DBPvm-17" source="aoM_VOd6xSWKAF-DBPvm-332" target="aoM_VOd6xSWKAF-DBPvm-337">
          <mxGeometry relative="1" as="geometry">
            <mxPoint x="110" y="820" as="targetPoint" />
            <Array as="points">
              <mxPoint x="80" y="740" />
              <mxPoint x="80" y="740" />
            </Array>
          </mxGeometry>
        </mxCell>
        <mxCell id="aoM_VOd6xSWKAF-DBPvm-8" value="Директор магазина" style="swimlane;strokeColor=#CC0000;" vertex="1" parent="1">
          <mxGeometry x="180" y="320" width="320" height="830" as="geometry" />
        </mxCell>
        <mxCell id="aoM_VOd6xSWKAF-DBPvm-10" value="1.1 ОБУЧЕНИЕ ПРОДАВЦОВ, КЛАДОВЩИКОВ, ПЕКАРЕЙ В ШМ/ШП" style="swimlane;horizontal=0;startSize=30;" vertex="1" parent="1">
          <mxGeometry x="150" y="320" width="30" height="830" as="geometry" />
        </mxCell>
        <mxCell id="aoM_VOd6xSWKAF-DBPvm-18" value="Менеджер по обучению" style="swimlane;strokeColor=#CC0000;" vertex="1" parent="1">
          <mxGeometry x="2170" y="320" width="840" height="830" as="geometry" />
        </mxCell>
        <mxCell id="aoM_VOd6xSWKAF-DBPvm-328" value="Выяснить причину неявки стажера" style="whiteSpace=wrap;html=1;fontSize=14;fontFamily=Times New Roman;rounded=1;" vertex="1" parent="aoM_VOd6xSWKAF-DBPvm-18">
          <mxGeometry x="60" y="40" width="120" height="60" as="geometry" />
        </mxCell>
        <mxCell id="aoM_VOd6xSWKAF-DBPvm-20" value="Менеджер учебного центра" style="swimlane;strokeColor=#CC0000;" vertex="1" parent="1">
          <mxGeometry x="3010" y="320" width="190" height="830" as="geometry" />
        </mxCell>
        <mxCell id="aoM_VOd6xSWKAF-DBPvm-24" value="Руководитель учебного центра" style="swimlane;strokeColor=#CC0000;" vertex="1" parent="1">
          <mxGeometry x="4340" y="320" width="260" height="830" as="geometry" />
        </mxCell>
        <mxCell id="aoM_VOd6xSWKAF-DBPvm-23" value="Руководитель подразделения" style="swimlane;strokeColor=#CC0000;" vertex="1" parent="aoM_VOd6xSWKAF-DBPvm-24">
          <mxGeometry x="-280" width="280" height="830" as="geometry" />
        </mxCell>
        <mxCell id="aoM_VOd6xSWKAF-DBPvm-22" value="Операционный директор" style="swimlane;strokeColor=#CC0000;" vertex="1" parent="aoM_VOd6xSWKAF-DBPvm-23">
          <mxGeometry x="-190" width="190" height="830" as="geometry" />
        </mxCell>
        <mxCell id="aoM_VOd6xSWKAF-DBPvm-21" value="Наставник" style="swimlane;strokeColor=#CC0000;" vertex="1" parent="aoM_VOd6xSWKAF-DBPvm-22">
          <mxGeometry x="-670" width="670" height="830" as="geometry" />
        </mxCell>
        <mxCell id="aoM_VOd6xSWKAF-DBPvm-304" value="&lt;span style=&quot;font-size: 14px; letter-spacing: -0.05pt;&quot;&gt;Подготовиться &lt;/span&gt;&lt;span style=&quot;font-size: 14px;&quot;&gt;к&lt;span style=&quot;letter-spacing: -2.35pt; font-size: 14px;&quot;&gt; &lt;/span&gt;обучению&lt;/span&gt;" style="rounded=1;whiteSpace=wrap;html=1;fontFamily=Times New Roman;fontSize=14;" vertex="1" parent="aoM_VOd6xSWKAF-DBPvm-21">
          <mxGeometry x="35" y="30" width="120" height="70" as="geometry" />
        </mxCell>
        <mxCell id="aoM_VOd6xSWKAF-DBPvm-311" value="" style="edgeStyle=orthogonalEdgeStyle;rounded=0;orthogonalLoop=1;jettySize=auto;html=1;strokeColor=#B5739D;" edge="1" parent="aoM_VOd6xSWKAF-DBPvm-21" source="aoM_VOd6xSWKAF-DBPvm-308" target="aoM_VOd6xSWKAF-DBPvm-310">
          <mxGeometry relative="1" as="geometry" />
        </mxCell>
        <mxCell id="aoM_VOd6xSWKAF-DBPvm-308" value="&lt;span style=&quot;font-size: 14px;&quot;&gt;Проверить&lt;span style=&quot;letter-spacing: 0.05pt; font-size: 14px;&quot;&gt; &lt;/span&gt;&lt;span style=&quot;letter-spacing: -0.05pt; font-size: 14px;&quot;&gt;группу&lt;/span&gt;&lt;span style=&quot;letter-spacing: -0.35pt; font-size: 14px;&quot;&gt; &lt;/span&gt;&lt;span style=&quot;letter-spacing: -0.05pt; font-size: 14px;&quot;&gt;обучения&lt;/span&gt;&lt;/span&gt;" style="whiteSpace=wrap;html=1;rounded=1;fontFamily=Times New Roman;fontSize=14;arcSize=40;" vertex="1" parent="aoM_VOd6xSWKAF-DBPvm-21">
          <mxGeometry x="35" y="120" width="120" height="60" as="geometry" />
        </mxCell>
        <mxCell id="aoM_VOd6xSWKAF-DBPvm-309" value="" style="edgeStyle=orthogonalEdgeStyle;rounded=0;orthogonalLoop=1;jettySize=auto;html=1;strokeColor=#B5739D;" edge="1" parent="aoM_VOd6xSWKAF-DBPvm-21" source="aoM_VOd6xSWKAF-DBPvm-304" target="aoM_VOd6xSWKAF-DBPvm-308">
          <mxGeometry relative="1" as="geometry" />
        </mxCell>
        <mxCell id="aoM_VOd6xSWKAF-DBPvm-310" value="Сообщить об отсутствии задачи в 1С" style="whiteSpace=wrap;html=1;rounded=1;fontFamily=Times New Roman;fontSize=14;" vertex="1" parent="aoM_VOd6xSWKAF-DBPvm-21">
          <mxGeometry x="35" y="200" width="120" height="60" as="geometry" />
        </mxCell>
        <mxCell id="aoM_VOd6xSWKAF-DBPvm-314" value="Поставить неявку в задаче в 1С" style="whiteSpace=wrap;html=1;fontSize=14;fontFamily=Times New Roman;rounded=1;" vertex="1" parent="aoM_VOd6xSWKAF-DBPvm-21">
          <mxGeometry x="35" y="270" width="120" height="60" as="geometry" />
        </mxCell>
        <mxCell id="aoM_VOd6xSWKAF-DBPvm-317" value="Рассказать стажеру о правилах стажировки" style="whiteSpace=wrap;html=1;fontSize=14;fontFamily=Times New Roman;rounded=1;" vertex="1" parent="aoM_VOd6xSWKAF-DBPvm-21">
          <mxGeometry x="35" y="350" width="120" height="60" as="geometry" />
        </mxCell>
        <mxCell id="aoM_VOd6xSWKAF-DBPvm-318" value="" style="edgeStyle=orthogonalEdgeStyle;rounded=0;orthogonalLoop=1;jettySize=auto;html=1;fontFamily=Times New Roman;fontSize=14;strokeColor=#B5739D;" edge="1" parent="aoM_VOd6xSWKAF-DBPvm-21" source="aoM_VOd6xSWKAF-DBPvm-314" target="aoM_VOd6xSWKAF-DBPvm-317">
          <mxGeometry relative="1" as="geometry" />
        </mxCell>
        <mxCell id="aoM_VOd6xSWKAF-DBPvm-319" value="Проверить прогресс курса в СДО" style="whiteSpace=wrap;html=1;fontSize=14;fontFamily=Times New Roman;rounded=1;" vertex="1" parent="aoM_VOd6xSWKAF-DBPvm-21">
          <mxGeometry x="35" y="430" width="120" height="60" as="geometry" />
        </mxCell>
        <mxCell id="aoM_VOd6xSWKAF-DBPvm-320" value="" style="edgeStyle=orthogonalEdgeStyle;rounded=0;orthogonalLoop=1;jettySize=auto;html=1;fontFamily=Times New Roman;fontSize=14;strokeColor=#B5739D;" edge="1" parent="aoM_VOd6xSWKAF-DBPvm-21" source="aoM_VOd6xSWKAF-DBPvm-317" target="aoM_VOd6xSWKAF-DBPvm-319">
          <mxGeometry relative="1" as="geometry" />
        </mxCell>
        <mxCell id="aoM_VOd6xSWKAF-DBPvm-321" value="Организовать изучение курса" style="whiteSpace=wrap;html=1;fontSize=14;fontFamily=Times New Roman;rounded=1;" vertex="1" parent="aoM_VOd6xSWKAF-DBPvm-21">
          <mxGeometry x="35" y="510" width="120" height="60" as="geometry" />
        </mxCell>
        <mxCell id="aoM_VOd6xSWKAF-DBPvm-322" value="" style="edgeStyle=orthogonalEdgeStyle;rounded=0;orthogonalLoop=1;jettySize=auto;html=1;fontFamily=Times New Roman;fontSize=14;strokeColor=#B5739D;" edge="1" parent="aoM_VOd6xSWKAF-DBPvm-21" source="aoM_VOd6xSWKAF-DBPvm-319" target="aoM_VOd6xSWKAF-DBPvm-321">
          <mxGeometry relative="1" as="geometry" />
        </mxCell>
        <mxCell id="aoM_VOd6xSWKAF-DBPvm-323" value="Провести практическое обучение" style="whiteSpace=wrap;html=1;fontSize=14;fontFamily=Times New Roman;rounded=1;fontColor=#050505;fillColor=#E6E6E6;" vertex="1" parent="aoM_VOd6xSWKAF-DBPvm-21">
          <mxGeometry x="35" y="590" width="120" height="60" as="geometry" />
        </mxCell>
        <mxCell id="aoM_VOd6xSWKAF-DBPvm-324" value="" style="edgeStyle=orthogonalEdgeStyle;rounded=0;orthogonalLoop=1;jettySize=auto;html=1;fontFamily=Times New Roman;fontSize=14;strokeColor=#B5739D;" edge="1" parent="aoM_VOd6xSWKAF-DBPvm-21" source="aoM_VOd6xSWKAF-DBPvm-321" target="aoM_VOd6xSWKAF-DBPvm-323">
          <mxGeometry relative="1" as="geometry" />
        </mxCell>
        <mxCell id="aoM_VOd6xSWKAF-DBPvm-325" value="Оценить готовность стажера к самостоятельной работе" style="whiteSpace=wrap;html=1;fontSize=14;fontFamily=Times New Roman;rounded=1;fillColor=#E6E6E6;" vertex="1" parent="aoM_VOd6xSWKAF-DBPvm-21">
          <mxGeometry x="35" y="670" width="120" height="80" as="geometry" />
        </mxCell>
        <mxCell id="aoM_VOd6xSWKAF-DBPvm-326" value="" style="edgeStyle=orthogonalEdgeStyle;rounded=0;orthogonalLoop=1;jettySize=auto;html=1;fontFamily=Times New Roman;fontSize=14;strokeColor=#B5739D;" edge="1" parent="aoM_VOd6xSWKAF-DBPvm-21" source="aoM_VOd6xSWKAF-DBPvm-323" target="aoM_VOd6xSWKAF-DBPvm-325">
          <mxGeometry relative="1" as="geometry" />
        </mxCell>
        <mxCell id="aoM_VOd6xSWKAF-DBPvm-451" value="" style="edgeStyle=orthogonalEdgeStyle;rounded=0;orthogonalLoop=1;jettySize=auto;html=1;fontFamily=Times New Roman;fontSize=14;fontColor=#000000;strokeColor=#67AB9F;entryX=0.75;entryY=0;entryDx=0;entryDy=0;" edge="1" parent="aoM_VOd6xSWKAF-DBPvm-21" source="aoM_VOd6xSWKAF-DBPvm-323" target="aoM_VOd6xSWKAF-DBPvm-325">
          <mxGeometry relative="1" as="geometry">
            <mxPoint x="320.0000000000009" y="520.0000000000002" as="targetPoint" />
            <Array as="points">
              <mxPoint x="120" y="650" />
              <mxPoint x="120" y="650" />
            </Array>
          </mxGeometry>
        </mxCell>
        <mxCell id="aoM_VOd6xSWKAF-DBPvm-515" value="" style="edgeStyle=orthogonalEdgeStyle;rounded=0;orthogonalLoop=1;jettySize=auto;html=1;fontFamily=Times New Roman;fontSize=14;fontColor=#000000;strokeColor=#0000CC;entryX=0.25;entryY=0;entryDx=0;entryDy=0;" edge="1" parent="aoM_VOd6xSWKAF-DBPvm-21" source="aoM_VOd6xSWKAF-DBPvm-323" target="aoM_VOd6xSWKAF-DBPvm-325">
          <mxGeometry relative="1" as="geometry">
            <mxPoint x="95" y="730" as="targetPoint" />
            <Array as="points">
              <mxPoint x="65" y="650" />
              <mxPoint x="65" y="650" />
            </Array>
          </mxGeometry>
        </mxCell>
        <mxCell id="aoM_VOd6xSWKAF-DBPvm-29" value="Участники ОПЗ" style="swimlane;strokeColor=#CC0000;" vertex="1" parent="1">
          <mxGeometry x="5400" y="320" width="190" height="830" as="geometry" />
        </mxCell>
        <mxCell id="aoM_VOd6xSWKAF-DBPvm-28" value="Участники курса менеджмент" style="swimlane;strokeColor=#CC0000;" vertex="1" parent="aoM_VOd6xSWKAF-DBPvm-29">
          <mxGeometry x="-190" width="190" height="830" as="geometry" />
        </mxCell>
        <mxCell id="aoM_VOd6xSWKAF-DBPvm-27" value="Школа пекарей" style="swimlane;strokeColor=#CC0000;" vertex="1" parent="aoM_VOd6xSWKAF-DBPvm-28">
          <mxGeometry x="-190" width="190" height="830" as="geometry" />
        </mxCell>
        <mxCell id="aoM_VOd6xSWKAF-DBPvm-26" value="Территориальный&#xa;директор" style="swimlane;strokeColor=#CC0000;" vertex="1" parent="aoM_VOd6xSWKAF-DBPvm-27">
          <mxGeometry x="-190" width="190" height="830" as="geometry" />
        </mxCell>
        <mxCell id="aoM_VOd6xSWKAF-DBPvm-25" value="Технолог по хлебопечению" style="swimlane;strokeColor=#CC0000;" vertex="1" parent="aoM_VOd6xSWKAF-DBPvm-26">
          <mxGeometry x="-230" width="230" height="830" as="geometry" />
        </mxCell>
        <mxCell id="aoM_VOd6xSWKAF-DBPvm-30" value="Любой сотрудник" style="swimlane;strokeColor=#CC0000;" vertex="1" parent="1">
          <mxGeometry x="5590" y="320" width="160" height="830" as="geometry" />
        </mxCell>
        <mxCell id="aoM_VOd6xSWKAF-DBPvm-32" value="1.2 ОБУЧЕНИЕ СОТРУДНИКОВ ЛП/СКЛАДА В РЕГИОНАЛЬНЫХ МАГАЗИНАХ" style="swimlane;horizontal=0;startSize=30;align=center;" vertex="1" parent="1">
          <mxGeometry x="150" y="1150" width="30" height="620" as="geometry" />
        </mxCell>
        <mxCell id="aoM_VOd6xSWKAF-DBPvm-341" value="" style="edgeStyle=orthogonalEdgeStyle;rounded=0;orthogonalLoop=1;jettySize=auto;html=1;fontFamily=Times New Roman;fontSize=14;strokeColor=#7EA6E0;" edge="1" parent="aoM_VOd6xSWKAF-DBPvm-32" source="aoM_VOd6xSWKAF-DBPvm-339" target="aoM_VOd6xSWKAF-DBPvm-340">
          <mxGeometry relative="1" as="geometry" />
        </mxCell>
        <mxCell id="aoM_VOd6xSWKAF-DBPvm-339" value="Организация обучения" style="rounded=1;whiteSpace=wrap;html=1;fontFamily=Times New Roman;fontSize=14;" vertex="1" parent="aoM_VOd6xSWKAF-DBPvm-32">
          <mxGeometry x="55" y="30" width="120" height="60" as="geometry" />
        </mxCell>
        <mxCell id="aoM_VOd6xSWKAF-DBPvm-344" value="" style="edgeStyle=orthogonalEdgeStyle;rounded=0;orthogonalLoop=1;jettySize=auto;html=1;fontFamily=Times New Roman;fontSize=14;strokeColor=#7EA6E0;" edge="1" parent="aoM_VOd6xSWKAF-DBPvm-32" source="aoM_VOd6xSWKAF-DBPvm-340" target="aoM_VOd6xSWKAF-DBPvm-343">
          <mxGeometry relative="1" as="geometry" />
        </mxCell>
        <mxCell id="aoM_VOd6xSWKAF-DBPvm-340" value="Проверить прогресс курса в СДО" style="whiteSpace=wrap;html=1;fontSize=14;fontFamily=Times New Roman;rounded=1;" vertex="1" parent="aoM_VOd6xSWKAF-DBPvm-32">
          <mxGeometry x="55" y="110" width="120" height="60" as="geometry" />
        </mxCell>
        <mxCell id="aoM_VOd6xSWKAF-DBPvm-346" value="" style="edgeStyle=orthogonalEdgeStyle;rounded=0;orthogonalLoop=1;jettySize=auto;html=1;fontFamily=Times New Roman;fontSize=14;strokeColor=#7EA6E0;" edge="1" parent="aoM_VOd6xSWKAF-DBPvm-32" source="aoM_VOd6xSWKAF-DBPvm-343" target="aoM_VOd6xSWKAF-DBPvm-345">
          <mxGeometry relative="1" as="geometry" />
        </mxCell>
        <mxCell id="aoM_VOd6xSWKAF-DBPvm-343" value="Организовать изучение курса" style="whiteSpace=wrap;html=1;fontSize=14;fontFamily=Times New Roman;rounded=1;" vertex="1" parent="aoM_VOd6xSWKAF-DBPvm-32">
          <mxGeometry x="55" y="190" width="120" height="60" as="geometry" />
        </mxCell>
        <mxCell id="aoM_VOd6xSWKAF-DBPvm-345" value="Организовать практическое обучение" style="whiteSpace=wrap;html=1;fontSize=14;fontFamily=Times New Roman;rounded=1;" vertex="1" parent="aoM_VOd6xSWKAF-DBPvm-32">
          <mxGeometry x="55" y="270" width="120" height="60" as="geometry" />
        </mxCell>
        <mxCell id="aoM_VOd6xSWKAF-DBPvm-34" value="1.4 ОБУЧЕНИЕ ПЕКАРЕЙ В МАГАЗИНЕ" style="swimlane;horizontal=0;startSize=30;" vertex="1" parent="1">
          <mxGeometry x="150" y="2060" width="30" height="290" as="geometry" />
        </mxCell>
        <mxCell id="aoM_VOd6xSWKAF-DBPvm-35" value="1.5 АДАПТАЦИЯ СОТРУДНИКОВ ПОСЛЕ ОБУЧЕНИЯ В ШМ/ШП И ПОВЫШЕНИЕ КАЧЕСТВА ОБУЧЕНИЯ" style="swimlane;horizontal=0;startSize=30;" vertex="1" parent="1">
          <mxGeometry x="150" y="2350" width="30" height="640" as="geometry" />
        </mxCell>
        <mxCell id="aoM_VOd6xSWKAF-DBPvm-36" value="1.6 ФОРМИРОВАНИЕ КАДРОВОГО РЕЗЕРВА АУПа И ДАЛЬНЕЙШЕЕ ВЗАИМОДЕЙСТВИЕ С СОТРУДНИКОМ ПОСЛЕ&#xa;ОКОНЧАНИЯ ОБУЧЕНИЯ" style="swimlane;horizontal=0;startSize=30;" vertex="1" parent="1">
          <mxGeometry x="150" y="2990" width="30" height="680" as="geometry" />
        </mxCell>
        <mxCell id="aoM_VOd6xSWKAF-DBPvm-37" value="2.1 ПОДГОТОВКА И ПРОВЕДЕНИЕ ОПЗ ДЛЯ СОТРУДНИКОВ ЛП, СКЛАДА, СП" style="swimlane;horizontal=0;startSize=30;" vertex="1" parent="1">
          <mxGeometry x="110" y="4670" width="200" height="470" as="geometry" />
        </mxCell>
        <mxCell id="aoM_VOd6xSWKAF-DBPvm-38" value="2.2 ПОДГОТОВКА И ПРОВЕДЕНИЕ ОПЗ ДЛЯ СОТРУДНИКОВ АУП" style="swimlane;horizontal=0;startSize=30;" vertex="1" parent="1">
          <mxGeometry x="110" y="5140" width="200" height="400" as="geometry" />
        </mxCell>
        <mxCell id="aoM_VOd6xSWKAF-DBPvm-39" value="3.1 ОБУЧЕНИЕ ПО КУРСУ МЕНЕДЖМЕНТА" style="swimlane;horizontal=0;startSize=30;" vertex="1" parent="1">
          <mxGeometry x="110" y="5540" width="200" height="260" as="geometry" />
        </mxCell>
        <mxCell id="aoM_VOd6xSWKAF-DBPvm-40" value="4. ПОЛУЧЕНИЕ ПЕРСОНАЛЬНОГО ПАРОЛЯ В ДОМИНО 8 СОТРУДНИКОВ ГАСТРОНОМОВ И ЛП" style="swimlane;horizontal=0;startSize=30;" vertex="1" parent="1">
          <mxGeometry x="110" y="5800" width="200" height="580" as="geometry" />
        </mxCell>
        <mxCell id="aoM_VOd6xSWKAF-DBPvm-41" value="5. ФОРМИРОВАНИЕ СПИСКА НАСТАВНИКОВ И ОПЛАТА НАСТАВНИЧЕСТВА" style="swimlane;horizontal=0;startSize=30;" vertex="1" parent="1">
          <mxGeometry x="110" y="6380" width="3820" height="470" as="geometry" />
        </mxCell>
        <mxCell id="aoM_VOd6xSWKAF-DBPvm-283" value="" style="swimlane;startSize=0;" vertex="1" parent="aoM_VOd6xSWKAF-DBPvm-41">
          <mxGeometry x="200" width="180" height="470" as="geometry" />
        </mxCell>
        <mxCell id="aoM_VOd6xSWKAF-DBPvm-284" value="" style="swimlane;startSize=0;" vertex="1" parent="aoM_VOd6xSWKAF-DBPvm-41">
          <mxGeometry x="380" width="180" height="470" as="geometry" />
        </mxCell>
        <mxCell id="aoM_VOd6xSWKAF-DBPvm-285" value="" style="swimlane;startSize=0;" vertex="1" parent="aoM_VOd6xSWKAF-DBPvm-41">
          <mxGeometry x="560" width="180" height="470" as="geometry" />
        </mxCell>
        <mxCell id="aoM_VOd6xSWKAF-DBPvm-286" value="" style="swimlane;startSize=0;" vertex="1" parent="aoM_VOd6xSWKAF-DBPvm-41">
          <mxGeometry x="740" width="230" height="470" as="geometry" />
        </mxCell>
        <mxCell id="aoM_VOd6xSWKAF-DBPvm-287" value="" style="swimlane;startSize=0;" vertex="1" parent="aoM_VOd6xSWKAF-DBPvm-41">
          <mxGeometry x="970" width="190" height="470" as="geometry" />
        </mxCell>
        <mxCell id="aoM_VOd6xSWKAF-DBPvm-288" value="" style="swimlane;startSize=0;" vertex="1" parent="aoM_VOd6xSWKAF-DBPvm-41">
          <mxGeometry x="1160" width="190" height="470" as="geometry" />
        </mxCell>
        <mxCell id="aoM_VOd6xSWKAF-DBPvm-289" value="" style="swimlane;startSize=0;" vertex="1" parent="aoM_VOd6xSWKAF-DBPvm-41">
          <mxGeometry x="1350" width="190" height="470" as="geometry" />
        </mxCell>
        <mxCell id="aoM_VOd6xSWKAF-DBPvm-290" value="" style="swimlane;startSize=0;" vertex="1" parent="aoM_VOd6xSWKAF-DBPvm-41">
          <mxGeometry x="1540" width="190" height="470" as="geometry" />
        </mxCell>
        <mxCell id="aoM_VOd6xSWKAF-DBPvm-291" value="" style="swimlane;startSize=0;" vertex="1" parent="aoM_VOd6xSWKAF-DBPvm-41">
          <mxGeometry x="1730" width="190" height="470" as="geometry" />
        </mxCell>
        <mxCell id="aoM_VOd6xSWKAF-DBPvm-293" value="" style="swimlane;startSize=0;" vertex="1" parent="aoM_VOd6xSWKAF-DBPvm-41">
          <mxGeometry x="2110" width="190" height="470" as="geometry" />
        </mxCell>
        <mxCell id="aoM_VOd6xSWKAF-DBPvm-294" value="" style="swimlane;startSize=0;" vertex="1" parent="aoM_VOd6xSWKAF-DBPvm-41">
          <mxGeometry x="2300" width="950" height="470" as="geometry" />
        </mxCell>
        <mxCell id="aoM_VOd6xSWKAF-DBPvm-295" value="" style="swimlane;startSize=0;" vertex="1" parent="aoM_VOd6xSWKAF-DBPvm-294">
          <mxGeometry x="190" width="190" height="470" as="geometry" />
        </mxCell>
        <mxCell id="aoM_VOd6xSWKAF-DBPvm-296" value="" style="swimlane;startSize=0;" vertex="1" parent="aoM_VOd6xSWKAF-DBPvm-294">
          <mxGeometry x="380" width="190" height="470" as="geometry" />
        </mxCell>
        <mxCell id="aoM_VOd6xSWKAF-DBPvm-297" value="" style="swimlane;startSize=0;" vertex="1" parent="aoM_VOd6xSWKAF-DBPvm-294">
          <mxGeometry x="570" width="190" height="470" as="geometry" />
        </mxCell>
        <mxCell id="aoM_VOd6xSWKAF-DBPvm-298" value="" style="swimlane;startSize=0;" vertex="1" parent="aoM_VOd6xSWKAF-DBPvm-294">
          <mxGeometry x="760" width="190" height="470" as="geometry" />
        </mxCell>
        <mxCell id="aoM_VOd6xSWKAF-DBPvm-299" value="" style="swimlane;startSize=0;" vertex="1" parent="aoM_VOd6xSWKAF-DBPvm-41">
          <mxGeometry x="3250" width="190" height="470" as="geometry" />
        </mxCell>
        <mxCell id="aoM_VOd6xSWKAF-DBPvm-300" value="" style="swimlane;startSize=0;" vertex="1" parent="aoM_VOd6xSWKAF-DBPvm-41">
          <mxGeometry x="3440" width="190" height="470" as="geometry" />
        </mxCell>
        <mxCell id="aoM_VOd6xSWKAF-DBPvm-301" value="" style="swimlane;startSize=0;" vertex="1" parent="aoM_VOd6xSWKAF-DBPvm-41">
          <mxGeometry x="3630" width="190" height="470" as="geometry" />
        </mxCell>
        <mxCell id="aoM_VOd6xSWKAF-DBPvm-44" value="" style="swimlane;startSize=0;strokeColor=#CC0000;" vertex="1" parent="1">
          <mxGeometry x="680" y="1150" width="180" height="620" as="geometry" />
        </mxCell>
        <mxCell id="aoM_VOd6xSWKAF-DBPvm-43" value="" style="swimlane;startSize=0;strokeColor=#CC0000;" vertex="1" parent="aoM_VOd6xSWKAF-DBPvm-44">
          <mxGeometry x="-180" width="180" height="620" as="geometry" />
        </mxCell>
        <mxCell id="aoM_VOd6xSWKAF-DBPvm-458" value="" style="swimlane;startSize=0;fontFamily=Times New Roman;fontSize=14;strokeColor=#CC0000;" vertex="1" parent="aoM_VOd6xSWKAF-DBPvm-43">
          <mxGeometry x="-320" width="320" height="620" as="geometry" />
        </mxCell>
        <mxCell id="aoM_VOd6xSWKAF-DBPvm-46" value="" style="swimlane;startSize=0;strokeColor=#CC0000;" vertex="1" parent="1">
          <mxGeometry x="1040" y="1150" width="230" height="620" as="geometry" />
        </mxCell>
        <mxCell id="aoM_VOd6xSWKAF-DBPvm-361" value="Получить обратную связь" style="whiteSpace=wrap;html=1;fontSize=14;fontFamily=Times New Roman;rounded=1;" vertex="1" parent="aoM_VOd6xSWKAF-DBPvm-46">
          <mxGeometry x="55" y="380" width="120" height="60" as="geometry" />
        </mxCell>
        <mxCell id="aoM_VOd6xSWKAF-DBPvm-45" value="" style="swimlane;startSize=0;strokeColor=#CC0000;" vertex="1" parent="aoM_VOd6xSWKAF-DBPvm-46">
          <mxGeometry x="-180" width="180" height="620" as="geometry" />
        </mxCell>
        <mxCell id="aoM_VOd6xSWKAF-DBPvm-47" value="" style="swimlane;startSize=0;strokeColor=#CC0000;" vertex="1" parent="1">
          <mxGeometry x="1460" y="1150" width="190" height="620" as="geometry" />
        </mxCell>
        <mxCell id="aoM_VOd6xSWKAF-DBPvm-358" value="Получить обратную связь" style="whiteSpace=wrap;html=1;fontSize=14;fontFamily=Times New Roman;rounded=1;" vertex="1" parent="aoM_VOd6xSWKAF-DBPvm-47">
          <mxGeometry x="35" y="320" width="120" height="60" as="geometry" />
        </mxCell>
        <mxCell id="aoM_VOd6xSWKAF-DBPvm-48" value="" style="swimlane;startSize=0;strokeColor=#CC0000;" vertex="1" parent="1">
          <mxGeometry x="1270" y="1150" width="190" height="620" as="geometry" />
        </mxCell>
        <mxCell id="aoM_VOd6xSWKAF-DBPvm-50" value="" style="swimlane;startSize=0;strokeColor=#CC0000;" vertex="1" parent="1">
          <mxGeometry x="2170" y="1150" width="840" height="620" as="geometry" />
        </mxCell>
        <mxCell id="aoM_VOd6xSWKAF-DBPvm-51" value="" style="swimlane;startSize=0;strokeColor=#CC0000;" vertex="1" parent="1">
          <mxGeometry x="3010" y="1150" width="190" height="620" as="geometry" />
        </mxCell>
        <mxCell id="aoM_VOd6xSWKAF-DBPvm-56" value="" style="swimlane;startSize=0;strokeColor=#CC0000;" vertex="1" parent="1">
          <mxGeometry x="4340" y="1150" width="260" height="620" as="geometry" />
        </mxCell>
        <mxCell id="aoM_VOd6xSWKAF-DBPvm-55" value="" style="swimlane;startSize=0;strokeColor=#CC0000;" vertex="1" parent="aoM_VOd6xSWKAF-DBPvm-56">
          <mxGeometry x="-280" width="280" height="620" as="geometry" />
        </mxCell>
        <mxCell id="aoM_VOd6xSWKAF-DBPvm-54" value="" style="swimlane;startSize=0;strokeColor=#CC0000;" vertex="1" parent="aoM_VOd6xSWKAF-DBPvm-55">
          <mxGeometry x="-190" width="190" height="620" as="geometry" />
        </mxCell>
        <mxCell id="aoM_VOd6xSWKAF-DBPvm-53" value="" style="swimlane;startSize=0;strokeColor=#CC0000;" vertex="1" parent="aoM_VOd6xSWKAF-DBPvm-54">
          <mxGeometry x="-670" width="670" height="620" as="geometry" />
        </mxCell>
        <mxCell id="aoM_VOd6xSWKAF-DBPvm-57" value="" style="swimlane;startSize=0;strokeColor=#CC0000;" vertex="1" parent="1">
          <mxGeometry x="4600" y="1150" width="230" height="620" as="geometry" />
        </mxCell>
        <mxCell id="aoM_VOd6xSWKAF-DBPvm-58" value="" style="swimlane;startSize=0;strokeColor=#CC0000;" vertex="1" parent="1">
          <mxGeometry x="5020" y="1150" width="190" height="620" as="geometry" />
        </mxCell>
        <mxCell id="aoM_VOd6xSWKAF-DBPvm-59" value="" style="swimlane;startSize=0;strokeColor=#CC0000;" vertex="1" parent="aoM_VOd6xSWKAF-DBPvm-58">
          <mxGeometry x="-190" width="190" height="620" as="geometry" />
        </mxCell>
        <mxCell id="aoM_VOd6xSWKAF-DBPvm-60" value="" style="swimlane;startSize=0;strokeColor=#CC0000;" vertex="1" parent="1">
          <mxGeometry x="5590" y="1150" width="160" height="620" as="geometry" />
        </mxCell>
        <mxCell id="aoM_VOd6xSWKAF-DBPvm-62" value="" style="swimlane;startSize=0;strokeColor=#CC0000;" vertex="1" parent="aoM_VOd6xSWKAF-DBPvm-60">
          <mxGeometry x="-190" width="190" height="620" as="geometry" />
        </mxCell>
        <mxCell id="aoM_VOd6xSWKAF-DBPvm-61" value="" style="swimlane;startSize=0;strokeColor=#CC0000;" vertex="1" parent="aoM_VOd6xSWKAF-DBPvm-62">
          <mxGeometry x="-190" width="190" height="620" as="geometry" />
        </mxCell>
        <mxCell id="aoM_VOd6xSWKAF-DBPvm-142" value="" style="swimlane;startSize=0;" vertex="1" parent="1">
          <mxGeometry x="310" y="3990" width="180" height="680" as="geometry" />
        </mxCell>
        <mxCell id="aoM_VOd6xSWKAF-DBPvm-143" value="" style="swimlane;startSize=0;" vertex="1" parent="1">
          <mxGeometry x="490" y="3990" width="180" height="680" as="geometry" />
        </mxCell>
        <mxCell id="aoM_VOd6xSWKAF-DBPvm-144" value="" style="swimlane;startSize=0;" vertex="1" parent="1">
          <mxGeometry x="670" y="3990" width="180" height="680" as="geometry" />
        </mxCell>
        <mxCell id="aoM_VOd6xSWKAF-DBPvm-145" value="" style="swimlane;startSize=0;" vertex="1" parent="1">
          <mxGeometry x="850" y="3990" width="230" height="680" as="geometry" />
        </mxCell>
        <mxCell id="aoM_VOd6xSWKAF-DBPvm-146" value="" style="swimlane;startSize=0;" vertex="1" parent="1">
          <mxGeometry x="1080" y="3990" width="190" height="680" as="geometry" />
        </mxCell>
        <mxCell id="aoM_VOd6xSWKAF-DBPvm-147" value="" style="swimlane;startSize=0;" vertex="1" parent="1">
          <mxGeometry x="1270" y="3990" width="190" height="680" as="geometry" />
        </mxCell>
        <mxCell id="aoM_VOd6xSWKAF-DBPvm-148" value="" style="swimlane;startSize=0;" vertex="1" parent="1">
          <mxGeometry x="1460" y="3990" width="190" height="680" as="geometry" />
        </mxCell>
        <mxCell id="aoM_VOd6xSWKAF-DBPvm-149" value="" style="swimlane;startSize=0;" vertex="1" parent="1">
          <mxGeometry x="1650" y="3990" width="190" height="680" as="geometry" />
        </mxCell>
        <mxCell id="aoM_VOd6xSWKAF-DBPvm-150" value="" style="swimlane;startSize=0;" vertex="1" parent="1">
          <mxGeometry x="1840" y="3990" width="190" height="680" as="geometry" />
        </mxCell>
        <mxCell id="aoM_VOd6xSWKAF-DBPvm-152" value="" style="swimlane;startSize=0;" vertex="1" parent="1">
          <mxGeometry x="2030" y="3990" width="190" height="680" as="geometry" />
        </mxCell>
        <mxCell id="aoM_VOd6xSWKAF-DBPvm-153" value="" style="swimlane;startSize=0;" vertex="1" parent="1">
          <mxGeometry x="2220" y="3990" width="190" height="680" as="geometry" />
        </mxCell>
        <mxCell id="aoM_VOd6xSWKAF-DBPvm-154" value="" style="swimlane;startSize=0;" vertex="1" parent="1">
          <mxGeometry x="2410" y="3990" width="190" height="680" as="geometry" />
        </mxCell>
        <mxCell id="aoM_VOd6xSWKAF-DBPvm-155" value="" style="swimlane;startSize=0;" vertex="1" parent="1">
          <mxGeometry x="2600" y="3990" width="190" height="680" as="geometry" />
        </mxCell>
        <mxCell id="aoM_VOd6xSWKAF-DBPvm-156" value="" style="swimlane;startSize=0;" vertex="1" parent="1">
          <mxGeometry x="2790" y="3990" width="190" height="680" as="geometry" />
        </mxCell>
        <mxCell id="aoM_VOd6xSWKAF-DBPvm-157" value="" style="swimlane;startSize=0;" vertex="1" parent="1">
          <mxGeometry x="2980" y="3990" width="190" height="680" as="geometry" />
        </mxCell>
        <mxCell id="aoM_VOd6xSWKAF-DBPvm-158" value="" style="swimlane;startSize=0;" vertex="1" parent="1">
          <mxGeometry x="3740" y="3990" width="190" height="680" as="geometry" />
        </mxCell>
        <mxCell id="aoM_VOd6xSWKAF-DBPvm-159" value="" style="swimlane;startSize=0;" vertex="1" parent="1">
          <mxGeometry x="3360" y="3990" width="190" height="680" as="geometry" />
        </mxCell>
        <mxCell id="aoM_VOd6xSWKAF-DBPvm-160" value="" style="swimlane;startSize=0;" vertex="1" parent="1">
          <mxGeometry x="3550" y="3990" width="190" height="680" as="geometry" />
        </mxCell>
        <mxCell id="aoM_VOd6xSWKAF-DBPvm-161" value="" style="swimlane;startSize=0;" vertex="1" parent="1">
          <mxGeometry x="3170" y="3990" width="190" height="680" as="geometry" />
        </mxCell>
        <mxCell id="aoM_VOd6xSWKAF-DBPvm-163" value="" style="swimlane;startSize=0;" vertex="1" parent="1">
          <mxGeometry x="310" y="4670" width="180" height="470" as="geometry" />
        </mxCell>
        <mxCell id="aoM_VOd6xSWKAF-DBPvm-164" value="" style="swimlane;startSize=0;" vertex="1" parent="1">
          <mxGeometry x="490" y="4670" width="180" height="470" as="geometry" />
        </mxCell>
        <mxCell id="aoM_VOd6xSWKAF-DBPvm-165" value="" style="swimlane;startSize=0;" vertex="1" parent="1">
          <mxGeometry x="670" y="4670" width="180" height="470" as="geometry" />
        </mxCell>
        <mxCell id="aoM_VOd6xSWKAF-DBPvm-166" value="" style="swimlane;startSize=0;" vertex="1" parent="1">
          <mxGeometry x="850" y="4670" width="230" height="470" as="geometry" />
        </mxCell>
        <mxCell id="aoM_VOd6xSWKAF-DBPvm-167" value="" style="swimlane;startSize=0;" vertex="1" parent="1">
          <mxGeometry x="1080" y="4670" width="190" height="470" as="geometry" />
        </mxCell>
        <mxCell id="aoM_VOd6xSWKAF-DBPvm-171" value="" style="swimlane;startSize=0;" vertex="1" parent="1">
          <mxGeometry x="1270" y="4670" width="190" height="470" as="geometry" />
        </mxCell>
        <mxCell id="aoM_VOd6xSWKAF-DBPvm-172" value="" style="swimlane;startSize=0;" vertex="1" parent="1">
          <mxGeometry x="1460" y="4670" width="190" height="470" as="geometry" />
        </mxCell>
        <mxCell id="aoM_VOd6xSWKAF-DBPvm-173" value="" style="swimlane;startSize=0;" vertex="1" parent="1">
          <mxGeometry x="1650" y="4670" width="190" height="470" as="geometry" />
        </mxCell>
        <mxCell id="aoM_VOd6xSWKAF-DBPvm-174" value="" style="swimlane;startSize=0;" vertex="1" parent="1">
          <mxGeometry x="1840" y="4670" width="190" height="470" as="geometry" />
        </mxCell>
        <mxCell id="aoM_VOd6xSWKAF-DBPvm-179" value="" style="swimlane;startSize=0;" vertex="1" parent="1">
          <mxGeometry x="2030" y="4670" width="190" height="470" as="geometry" />
        </mxCell>
        <mxCell id="aoM_VOd6xSWKAF-DBPvm-180" value="" style="swimlane;startSize=0;" vertex="1" parent="1">
          <mxGeometry x="2220" y="4670" width="950" height="470" as="geometry" />
        </mxCell>
        <mxCell id="aoM_VOd6xSWKAF-DBPvm-181" value="" style="swimlane;startSize=0;" vertex="1" parent="aoM_VOd6xSWKAF-DBPvm-180">
          <mxGeometry x="190" width="190" height="470" as="geometry" />
        </mxCell>
        <mxCell id="aoM_VOd6xSWKAF-DBPvm-182" value="" style="swimlane;startSize=0;" vertex="1" parent="aoM_VOd6xSWKAF-DBPvm-180">
          <mxGeometry x="380" width="190" height="470" as="geometry" />
        </mxCell>
        <mxCell id="aoM_VOd6xSWKAF-DBPvm-183" value="" style="swimlane;startSize=0;" vertex="1" parent="aoM_VOd6xSWKAF-DBPvm-180">
          <mxGeometry x="570" width="190" height="470" as="geometry" />
        </mxCell>
        <mxCell id="aoM_VOd6xSWKAF-DBPvm-184" value="" style="swimlane;startSize=0;" vertex="1" parent="aoM_VOd6xSWKAF-DBPvm-180">
          <mxGeometry x="760" width="190" height="470" as="geometry" />
        </mxCell>
        <mxCell id="aoM_VOd6xSWKAF-DBPvm-185" value="" style="swimlane;startSize=0;" vertex="1" parent="1">
          <mxGeometry x="3170" y="4670" width="190" height="470" as="geometry" />
        </mxCell>
        <mxCell id="aoM_VOd6xSWKAF-DBPvm-186" value="" style="swimlane;startSize=0;" vertex="1" parent="1">
          <mxGeometry x="3360" y="4670" width="190" height="470" as="geometry" />
        </mxCell>
        <mxCell id="aoM_VOd6xSWKAF-DBPvm-187" value="" style="swimlane;startSize=0;" vertex="1" parent="1">
          <mxGeometry x="3550" y="4670" width="190" height="470" as="geometry" />
        </mxCell>
        <mxCell id="aoM_VOd6xSWKAF-DBPvm-188" value="" style="swimlane;startSize=0;" vertex="1" parent="1">
          <mxGeometry x="3740" y="4670" width="190" height="470" as="geometry" />
        </mxCell>
        <mxCell id="aoM_VOd6xSWKAF-DBPvm-189" value="" style="swimlane;startSize=0;" vertex="1" parent="1">
          <mxGeometry x="310" y="5140" width="180" height="400" as="geometry" />
        </mxCell>
        <mxCell id="aoM_VOd6xSWKAF-DBPvm-190" value="" style="swimlane;startSize=0;" vertex="1" parent="1">
          <mxGeometry x="490" y="5140" width="180" height="400" as="geometry" />
        </mxCell>
        <mxCell id="aoM_VOd6xSWKAF-DBPvm-191" value="" style="swimlane;startSize=0;" vertex="1" parent="1">
          <mxGeometry x="670" y="5140" width="180" height="400" as="geometry" />
        </mxCell>
        <mxCell id="aoM_VOd6xSWKAF-DBPvm-192" value="" style="swimlane;startSize=0;" vertex="1" parent="1">
          <mxGeometry x="850" y="5140" width="230" height="400" as="geometry" />
        </mxCell>
        <mxCell id="aoM_VOd6xSWKAF-DBPvm-193" value="" style="swimlane;startSize=0;" vertex="1" parent="1">
          <mxGeometry x="1080" y="5140" width="190" height="400" as="geometry" />
        </mxCell>
        <mxCell id="aoM_VOd6xSWKAF-DBPvm-194" value="" style="swimlane;startSize=0;" vertex="1" parent="1">
          <mxGeometry x="1270" y="5140" width="190" height="400" as="geometry" />
        </mxCell>
        <mxCell id="aoM_VOd6xSWKAF-DBPvm-195" value="" style="swimlane;startSize=0;" vertex="1" parent="1">
          <mxGeometry x="1460" y="5140" width="190" height="400" as="geometry" />
        </mxCell>
        <mxCell id="aoM_VOd6xSWKAF-DBPvm-196" value="" style="swimlane;startSize=0;" vertex="1" parent="1">
          <mxGeometry x="1650" y="5140" width="190" height="400" as="geometry" />
        </mxCell>
        <mxCell id="aoM_VOd6xSWKAF-DBPvm-197" value="" style="swimlane;startSize=0;" vertex="1" parent="1">
          <mxGeometry x="1840" y="5140" width="190" height="400" as="geometry" />
        </mxCell>
        <mxCell id="aoM_VOd6xSWKAF-DBPvm-199" value="" style="swimlane;startSize=0;" vertex="1" parent="1">
          <mxGeometry x="2030" y="5140" width="190" height="400" as="geometry" />
        </mxCell>
        <mxCell id="aoM_VOd6xSWKAF-DBPvm-213" value="" style="swimlane;startSize=0;" vertex="1" parent="1">
          <mxGeometry x="2220" y="5140" width="190" height="400" as="geometry" />
        </mxCell>
        <mxCell id="aoM_VOd6xSWKAF-DBPvm-214" value="" style="swimlane;startSize=0;" vertex="1" parent="1">
          <mxGeometry x="2410" y="5140" width="190" height="400" as="geometry" />
        </mxCell>
        <mxCell id="aoM_VOd6xSWKAF-DBPvm-215" value="" style="swimlane;startSize=0;" vertex="1" parent="1">
          <mxGeometry x="2600" y="5140" width="190" height="400" as="geometry" />
        </mxCell>
        <mxCell id="aoM_VOd6xSWKAF-DBPvm-216" value="" style="swimlane;startSize=0;" vertex="1" parent="1">
          <mxGeometry x="2790" y="5140" width="190" height="400" as="geometry" />
        </mxCell>
        <mxCell id="aoM_VOd6xSWKAF-DBPvm-217" value="" style="swimlane;startSize=0;" vertex="1" parent="1">
          <mxGeometry x="2980" y="5140" width="190" height="400" as="geometry" />
        </mxCell>
        <mxCell id="aoM_VOd6xSWKAF-DBPvm-218" value="" style="swimlane;startSize=0;" vertex="1" parent="1">
          <mxGeometry x="3170" y="5140" width="190" height="400" as="geometry" />
        </mxCell>
        <mxCell id="aoM_VOd6xSWKAF-DBPvm-219" value="" style="swimlane;startSize=0;" vertex="1" parent="1">
          <mxGeometry x="3360" y="5140" width="190" height="400" as="geometry" />
        </mxCell>
        <mxCell id="aoM_VOd6xSWKAF-DBPvm-220" value="" style="swimlane;startSize=0;" vertex="1" parent="1">
          <mxGeometry x="3550" y="5140" width="190" height="400" as="geometry" />
        </mxCell>
        <mxCell id="aoM_VOd6xSWKAF-DBPvm-221" value="" style="swimlane;startSize=0;" vertex="1" parent="1">
          <mxGeometry x="3740" y="5140" width="190" height="400" as="geometry" />
        </mxCell>
        <mxCell id="aoM_VOd6xSWKAF-DBPvm-222" value="" style="swimlane;startSize=0;" vertex="1" parent="1">
          <mxGeometry x="310" y="5540" width="180" height="260" as="geometry" />
        </mxCell>
        <mxCell id="aoM_VOd6xSWKAF-DBPvm-223" value="" style="swimlane;startSize=0;" vertex="1" parent="1">
          <mxGeometry x="490" y="5540" width="180" height="260" as="geometry" />
        </mxCell>
        <mxCell id="aoM_VOd6xSWKAF-DBPvm-224" value="" style="swimlane;startSize=0;" vertex="1" parent="1">
          <mxGeometry x="670" y="5540" width="180" height="260" as="geometry" />
        </mxCell>
        <mxCell id="aoM_VOd6xSWKAF-DBPvm-225" value="" style="swimlane;startSize=0;" vertex="1" parent="1">
          <mxGeometry x="850" y="5540" width="230" height="260" as="geometry" />
        </mxCell>
        <mxCell id="aoM_VOd6xSWKAF-DBPvm-226" value="" style="swimlane;startSize=0;" vertex="1" parent="1">
          <mxGeometry x="1080" y="5540" width="190" height="260" as="geometry" />
        </mxCell>
        <mxCell id="aoM_VOd6xSWKAF-DBPvm-227" value="" style="swimlane;startSize=0;" vertex="1" parent="1">
          <mxGeometry x="1270" y="5540" width="190" height="260" as="geometry" />
        </mxCell>
        <mxCell id="aoM_VOd6xSWKAF-DBPvm-228" value="" style="swimlane;startSize=0;" vertex="1" parent="1">
          <mxGeometry x="1460" y="5540" width="190" height="260" as="geometry" />
        </mxCell>
        <mxCell id="aoM_VOd6xSWKAF-DBPvm-229" value="" style="swimlane;startSize=0;" vertex="1" parent="1">
          <mxGeometry x="1650" y="5540" width="190" height="260" as="geometry" />
        </mxCell>
        <mxCell id="aoM_VOd6xSWKAF-DBPvm-230" value="" style="swimlane;startSize=0;" vertex="1" parent="1">
          <mxGeometry x="1840" y="5540" width="190" height="260" as="geometry" />
        </mxCell>
        <mxCell id="aoM_VOd6xSWKAF-DBPvm-232" value="" style="swimlane;startSize=0;" vertex="1" parent="1">
          <mxGeometry x="2030" y="5540" width="190" height="260" as="geometry" />
        </mxCell>
        <mxCell id="aoM_VOd6xSWKAF-DBPvm-233" value="" style="swimlane;startSize=0;" vertex="1" parent="1">
          <mxGeometry x="2220" y="5540" width="190" height="260" as="geometry" />
        </mxCell>
        <mxCell id="aoM_VOd6xSWKAF-DBPvm-234" value="" style="swimlane;startSize=0;" vertex="1" parent="1">
          <mxGeometry x="2410" y="5540" width="190" height="260" as="geometry" />
        </mxCell>
        <mxCell id="aoM_VOd6xSWKAF-DBPvm-235" value="" style="swimlane;startSize=0;" vertex="1" parent="1">
          <mxGeometry x="2600" y="5540" width="190" height="260" as="geometry" />
        </mxCell>
        <mxCell id="aoM_VOd6xSWKAF-DBPvm-236" value="" style="swimlane;startSize=0;" vertex="1" parent="1">
          <mxGeometry x="2790" y="5540" width="190" height="260" as="geometry" />
        </mxCell>
        <mxCell id="aoM_VOd6xSWKAF-DBPvm-237" value="" style="swimlane;startSize=0;" vertex="1" parent="1">
          <mxGeometry x="2980" y="5540" width="190" height="260" as="geometry" />
        </mxCell>
        <mxCell id="aoM_VOd6xSWKAF-DBPvm-238" value="" style="swimlane;startSize=0;" vertex="1" parent="1">
          <mxGeometry x="3170" y="5540" width="190" height="260" as="geometry" />
        </mxCell>
        <mxCell id="aoM_VOd6xSWKAF-DBPvm-239" value="" style="swimlane;startSize=0;" vertex="1" parent="1">
          <mxGeometry x="3740" y="5540" width="190" height="260" as="geometry" />
        </mxCell>
        <mxCell id="aoM_VOd6xSWKAF-DBPvm-240" value="" style="swimlane;startSize=0;" vertex="1" parent="1">
          <mxGeometry x="3360" y="5540" width="190" height="260" as="geometry" />
        </mxCell>
        <mxCell id="aoM_VOd6xSWKAF-DBPvm-241" value="" style="swimlane;startSize=0;" vertex="1" parent="1">
          <mxGeometry x="3550" y="5540" width="190" height="260" as="geometry" />
        </mxCell>
        <mxCell id="aoM_VOd6xSWKAF-DBPvm-242" value="" style="swimlane;startSize=0;" vertex="1" parent="1">
          <mxGeometry x="310" y="5800" width="180" height="580" as="geometry" />
        </mxCell>
        <mxCell id="aoM_VOd6xSWKAF-DBPvm-243" value="" style="swimlane;startSize=0;" vertex="1" parent="1">
          <mxGeometry x="490" y="5800" width="180" height="580" as="geometry" />
        </mxCell>
        <mxCell id="aoM_VOd6xSWKAF-DBPvm-244" value="" style="swimlane;startSize=0;" vertex="1" parent="1">
          <mxGeometry x="670" y="5800" width="180" height="580" as="geometry" />
        </mxCell>
        <mxCell id="aoM_VOd6xSWKAF-DBPvm-245" value="" style="swimlane;startSize=0;" vertex="1" parent="1">
          <mxGeometry x="850" y="5800" width="230" height="580" as="geometry" />
        </mxCell>
        <mxCell id="aoM_VOd6xSWKAF-DBPvm-246" value="" style="swimlane;startSize=0;" vertex="1" parent="1">
          <mxGeometry x="1080" y="5800" width="190" height="580" as="geometry" />
        </mxCell>
        <mxCell id="aoM_VOd6xSWKAF-DBPvm-247" value="" style="swimlane;startSize=0;" vertex="1" parent="1">
          <mxGeometry x="1270" y="5800" width="190" height="580" as="geometry" />
        </mxCell>
        <mxCell id="aoM_VOd6xSWKAF-DBPvm-248" value="" style="swimlane;startSize=0;" vertex="1" parent="1">
          <mxGeometry x="1460" y="5800" width="190" height="580" as="geometry" />
        </mxCell>
        <mxCell id="aoM_VOd6xSWKAF-DBPvm-249" value="" style="swimlane;startSize=0;" vertex="1" parent="1">
          <mxGeometry x="1650" y="5800" width="190" height="580" as="geometry" />
        </mxCell>
        <mxCell id="aoM_VOd6xSWKAF-DBPvm-250" value="" style="swimlane;startSize=0;" vertex="1" parent="1">
          <mxGeometry x="1840" y="5800" width="190" height="580" as="geometry" />
        </mxCell>
        <mxCell id="aoM_VOd6xSWKAF-DBPvm-252" value="" style="swimlane;startSize=0;" vertex="1" parent="1">
          <mxGeometry x="2030" y="5800" width="190" height="580" as="geometry" />
        </mxCell>
        <mxCell id="aoM_VOd6xSWKAF-DBPvm-253" value="" style="swimlane;startSize=0;" vertex="1" parent="1">
          <mxGeometry x="2220" y="5800" width="190" height="580" as="geometry" />
        </mxCell>
        <mxCell id="aoM_VOd6xSWKAF-DBPvm-254" value="" style="swimlane;startSize=0;" vertex="1" parent="1">
          <mxGeometry x="2410" y="5800" width="190" height="580" as="geometry" />
        </mxCell>
        <mxCell id="aoM_VOd6xSWKAF-DBPvm-255" value="" style="swimlane;startSize=0;" vertex="1" parent="1">
          <mxGeometry x="2600" y="5800" width="190" height="580" as="geometry" />
        </mxCell>
        <mxCell id="aoM_VOd6xSWKAF-DBPvm-256" value="" style="swimlane;startSize=0;" vertex="1" parent="1">
          <mxGeometry x="2790" y="5800" width="190" height="580" as="geometry" />
        </mxCell>
        <mxCell id="aoM_VOd6xSWKAF-DBPvm-257" value="" style="swimlane;startSize=0;" vertex="1" parent="1">
          <mxGeometry x="2980" y="5800" width="190" height="580" as="geometry" />
        </mxCell>
        <mxCell id="aoM_VOd6xSWKAF-DBPvm-258" value="" style="swimlane;startSize=0;" vertex="1" parent="1">
          <mxGeometry x="3170" y="5800" width="190" height="580" as="geometry" />
        </mxCell>
        <mxCell id="aoM_VOd6xSWKAF-DBPvm-259" value="" style="swimlane;startSize=0;" vertex="1" parent="1">
          <mxGeometry x="3360" y="5800" width="190" height="580" as="geometry" />
        </mxCell>
        <mxCell id="aoM_VOd6xSWKAF-DBPvm-260" value="" style="swimlane;startSize=0;" vertex="1" parent="1">
          <mxGeometry x="3550" y="5800" width="190" height="580" as="geometry" />
        </mxCell>
        <mxCell id="aoM_VOd6xSWKAF-DBPvm-261" value="" style="swimlane;startSize=0;" vertex="1" parent="1">
          <mxGeometry x="3740" y="5800" width="190" height="580" as="geometry" />
        </mxCell>
        <mxCell id="aoM_VOd6xSWKAF-DBPvm-313" value="" style="edgeStyle=orthogonalEdgeStyle;rounded=0;orthogonalLoop=1;jettySize=auto;html=1;fontFamily=Times New Roman;fontSize=14;strokeColor=#B5739D;" edge="1" parent="1" source="aoM_VOd6xSWKAF-DBPvm-310" target="aoM_VOd6xSWKAF-DBPvm-312">
          <mxGeometry relative="1" as="geometry" />
        </mxCell>
        <mxCell id="aoM_VOd6xSWKAF-DBPvm-315" value="" style="edgeStyle=orthogonalEdgeStyle;rounded=0;orthogonalLoop=1;jettySize=auto;html=1;fontFamily=Times New Roman;fontSize=14;strokeColor=#B5739D;" edge="1" parent="1" source="aoM_VOd6xSWKAF-DBPvm-312" target="aoM_VOd6xSWKAF-DBPvm-314">
          <mxGeometry relative="1" as="geometry">
            <Array as="points">
              <mxPoint x="1940" y="610" />
              <mxPoint x="1940" y="610" />
            </Array>
          </mxGeometry>
        </mxCell>
        <mxCell id="aoM_VOd6xSWKAF-DBPvm-333" value="" style="edgeStyle=orthogonalEdgeStyle;rounded=0;orthogonalLoop=1;jettySize=auto;html=1;fontFamily=Times New Roman;fontSize=14;strokeColor=#B5739D;" edge="1" parent="1" source="aoM_VOd6xSWKAF-DBPvm-325" target="aoM_VOd6xSWKAF-DBPvm-332">
          <mxGeometry relative="1" as="geometry" />
        </mxCell>
        <mxCell id="aoM_VOd6xSWKAF-DBPvm-33" value="1.3 ОБУЧЕНИЕ ПОВАРОВ" style="swimlane;horizontal=0;startSize=30;" vertex="1" parent="1">
          <mxGeometry x="150" y="1770" width="30" height="290" as="geometry" />
        </mxCell>
        <mxCell id="aoM_VOd6xSWKAF-DBPvm-377" value="" style="swimlane;startSize=0;fontFamily=Times New Roman;fontSize=14;strokeColor=#CC0000;" vertex="1" parent="1">
          <mxGeometry x="500" y="1770" width="180" height="290" as="geometry" />
        </mxCell>
        <mxCell id="aoM_VOd6xSWKAF-DBPvm-379" value="" style="swimlane;startSize=0;fontFamily=Times New Roman;fontSize=14;strokeColor=#CC0000;" vertex="1" parent="1">
          <mxGeometry x="860" y="1770" width="180" height="290" as="geometry" />
        </mxCell>
        <mxCell id="aoM_VOd6xSWKAF-DBPvm-378" value="" style="swimlane;startSize=0;fontFamily=Times New Roman;fontSize=14;strokeColor=#CC0000;" vertex="1" parent="aoM_VOd6xSWKAF-DBPvm-379">
          <mxGeometry x="-180" width="180" height="290" as="geometry" />
        </mxCell>
        <mxCell id="aoM_VOd6xSWKAF-DBPvm-380" value="" style="swimlane;startSize=0;fontFamily=Times New Roman;fontSize=14;strokeColor=#CC0000;" vertex="1" parent="1">
          <mxGeometry x="1040" y="1770" width="230" height="290" as="geometry" />
        </mxCell>
        <mxCell id="aoM_VOd6xSWKAF-DBPvm-381" value="" style="swimlane;startSize=0;fontFamily=Times New Roman;fontSize=14;strokeColor=#CC0000;" vertex="1" parent="1">
          <mxGeometry x="1270" y="1770" width="190" height="290" as="geometry" />
        </mxCell>
        <mxCell id="aoM_VOd6xSWKAF-DBPvm-382" value="" style="swimlane;startSize=0;fontFamily=Times New Roman;fontSize=14;strokeColor=#CC0000;" vertex="1" parent="1">
          <mxGeometry x="1460" y="1770" width="190" height="290" as="geometry" />
        </mxCell>
        <mxCell id="aoM_VOd6xSWKAF-DBPvm-383" value="" style="swimlane;startSize=0;fontFamily=Times New Roman;fontSize=14;strokeColor=#CC0000;" vertex="1" parent="1">
          <mxGeometry x="1650" y="1770" width="520" height="290" as="geometry" />
        </mxCell>
        <mxCell id="aoM_VOd6xSWKAF-DBPvm-386" value="" style="swimlane;startSize=0;fontFamily=Times New Roman;fontSize=14;strokeColor=#CC0000;" vertex="1" parent="1">
          <mxGeometry x="3010" y="1770" width="190" height="290" as="geometry" />
        </mxCell>
        <mxCell id="aoM_VOd6xSWKAF-DBPvm-384" value="" style="swimlane;startSize=0;fontFamily=Times New Roman;fontSize=14;strokeColor=#CC0000;" vertex="1" parent="aoM_VOd6xSWKAF-DBPvm-386">
          <mxGeometry x="-840" width="840" height="290" as="geometry" />
        </mxCell>
        <mxCell id="aoM_VOd6xSWKAF-DBPvm-387" value="" style="swimlane;startSize=0;fontFamily=Times New Roman;fontSize=14;strokeColor=#CC0000;" vertex="1" parent="1">
          <mxGeometry x="3200" y="1770" width="670" height="290" as="geometry" />
        </mxCell>
        <mxCell id="aoM_VOd6xSWKAF-DBPvm-397" value="Проконтролировать выход сотрудника на обучение" style="rounded=1;whiteSpace=wrap;html=1;fontFamily=Times New Roman;fontSize=14;" vertex="1" parent="aoM_VOd6xSWKAF-DBPvm-387">
          <mxGeometry x="30" y="30" width="120" height="60" as="geometry" />
        </mxCell>
        <mxCell id="aoM_VOd6xSWKAF-DBPvm-436" value="&#xa;&#xa;&lt;span style=&quot;color: rgb(0, 0, 0); font-family: &amp;quot;times new roman&amp;quot;; font-size: 14px; font-style: normal; font-weight: 400; letter-spacing: normal; text-align: center; text-indent: 0px; text-transform: none; word-spacing: 0px; background-color: rgb(248, 249, 250); display: inline; float: none;&quot;&gt;Сообщить о выходе стажера&lt;/span&gt;&#xa;&#xa;" style="whiteSpace=wrap;html=1;fontSize=14;fontFamily=Times New Roman;rounded=1;" vertex="1" parent="aoM_VOd6xSWKAF-DBPvm-387">
          <mxGeometry x="30" y="110" width="120" height="60" as="geometry" />
        </mxCell>
        <mxCell id="aoM_VOd6xSWKAF-DBPvm-437" value="" style="edgeStyle=orthogonalEdgeStyle;rounded=0;orthogonalLoop=1;jettySize=auto;html=1;fontFamily=Times New Roman;fontSize=14;fontColor=#000000;strokeColor=#67AB9F;" edge="1" parent="aoM_VOd6xSWKAF-DBPvm-387" source="aoM_VOd6xSWKAF-DBPvm-397" target="aoM_VOd6xSWKAF-DBPvm-436">
          <mxGeometry relative="1" as="geometry" />
        </mxCell>
        <mxCell id="aoM_VOd6xSWKAF-DBPvm-502" value="" style="edgeStyle=orthogonalEdgeStyle;rounded=0;orthogonalLoop=1;jettySize=auto;html=1;fontFamily=Times New Roman;fontSize=14;fontColor=#000000;strokeColor=#0000CC;entryX=0.75;entryY=0;entryDx=0;entryDy=0;" edge="1" parent="aoM_VOd6xSWKAF-DBPvm-387" source="aoM_VOd6xSWKAF-DBPvm-397" target="aoM_VOd6xSWKAF-DBPvm-436">
          <mxGeometry relative="1" as="geometry">
            <mxPoint x="230" y="60" as="targetPoint" />
            <Array as="points">
              <mxPoint x="120" y="90" />
              <mxPoint x="120" y="90" />
            </Array>
          </mxGeometry>
        </mxCell>
        <mxCell id="aoM_VOd6xSWKAF-DBPvm-388" value="" style="swimlane;startSize=0;fontFamily=Times New Roman;fontSize=14;strokeColor=#CC0000;" vertex="1" parent="1">
          <mxGeometry x="3870" y="1770" width="190" height="290" as="geometry" />
        </mxCell>
        <mxCell id="aoM_VOd6xSWKAF-DBPvm-389" value="" style="swimlane;startSize=0;fontFamily=Times New Roman;fontSize=14;strokeColor=#CC0000;" vertex="1" parent="1">
          <mxGeometry x="4060" y="1770" width="280" height="290" as="geometry" />
        </mxCell>
        <mxCell id="aoM_VOd6xSWKAF-DBPvm-438" value="&#xa;&#xa;&lt;span style=&quot;color: rgb(0, 0, 0); font-family: &amp;quot;times new roman&amp;quot;; font-size: 14px; font-style: normal; font-weight: 400; letter-spacing: normal; text-align: center; text-indent: 0px; text-transform: none; word-spacing: 0px; background-color: rgb(248, 249, 250); display: inline; float: none;&quot;&gt;Сообщить о выходе стажера&lt;/span&gt;&#xa;&#xa;" style="whiteSpace=wrap;html=1;fontSize=14;fontFamily=Times New Roman;rounded=1;" vertex="1" parent="aoM_VOd6xSWKAF-DBPvm-389">
          <mxGeometry x="30" y="30" width="120" height="60" as="geometry" />
        </mxCell>
        <mxCell id="aoM_VOd6xSWKAF-DBPvm-446" value="Поставить неявку в задаче в 1С" style="whiteSpace=wrap;html=1;fontSize=14;fontFamily=Times New Roman;rounded=1;" vertex="1" parent="aoM_VOd6xSWKAF-DBPvm-389">
          <mxGeometry x="30" y="110" width="120" height="60" as="geometry" />
        </mxCell>
        <mxCell id="aoM_VOd6xSWKAF-DBPvm-452" value="Отработать задачу в 1С" style="whiteSpace=wrap;html=1;fontSize=14;fontFamily=Times New Roman;fillColor=#FFFFFF;rounded=1;" vertex="1" parent="aoM_VOd6xSWKAF-DBPvm-389">
          <mxGeometry x="30" y="200" width="120" height="60" as="geometry" />
        </mxCell>
        <mxCell id="aoM_VOd6xSWKAF-DBPvm-390" value="" style="swimlane;startSize=0;fontFamily=Times New Roman;fontSize=14;strokeColor=#CC0000;" vertex="1" parent="1">
          <mxGeometry x="4340" y="1770" width="260" height="290" as="geometry" />
        </mxCell>
        <mxCell id="aoM_VOd6xSWKAF-DBPvm-391" value="" style="swimlane;startSize=0;fontFamily=Times New Roman;fontSize=14;strokeColor=#CC0000;" vertex="1" parent="1">
          <mxGeometry x="4600" y="1770" width="230" height="290" as="geometry" />
        </mxCell>
        <mxCell id="aoM_VOd6xSWKAF-DBPvm-395" value="" style="swimlane;startSize=0;fontFamily=Times New Roman;fontSize=14;strokeColor=#CC0000;" vertex="1" parent="1">
          <mxGeometry x="5400" y="1770" width="190" height="290" as="geometry" />
        </mxCell>
        <mxCell id="aoM_VOd6xSWKAF-DBPvm-394" value="" style="swimlane;startSize=0;fontFamily=Times New Roman;fontSize=14;strokeColor=#CC0000;" vertex="1" parent="aoM_VOd6xSWKAF-DBPvm-395">
          <mxGeometry x="-190" width="190" height="290" as="geometry" />
        </mxCell>
        <mxCell id="aoM_VOd6xSWKAF-DBPvm-490" value="" style="swimlane;startSize=0;fontFamily=Times New Roman;fontSize=14;strokeColor=#CC0000;" vertex="1" parent="aoM_VOd6xSWKAF-DBPvm-394">
          <mxGeometry x="-190" width="190" height="290" as="geometry" />
        </mxCell>
        <mxCell id="aoM_VOd6xSWKAF-DBPvm-396" value="" style="swimlane;startSize=0;fontFamily=Times New Roman;fontSize=14;strokeColor=#CC0000;" vertex="1" parent="1">
          <mxGeometry x="5590" y="1770" width="160" height="290" as="geometry" />
        </mxCell>
        <mxCell id="aoM_VOd6xSWKAF-DBPvm-329" value="" style="edgeStyle=orthogonalEdgeStyle;rounded=0;orthogonalLoop=1;jettySize=auto;html=1;fontFamily=Times New Roman;fontSize=14;strokeColor=#B5739D;" edge="1" parent="1" source="aoM_VOd6xSWKAF-DBPvm-325" target="aoM_VOd6xSWKAF-DBPvm-328">
          <mxGeometry relative="1" as="geometry" />
        </mxCell>
        <mxCell id="aoM_VOd6xSWKAF-DBPvm-49" value="" style="swimlane;startSize=0;strokeColor=#CC0000;" vertex="1" parent="1">
          <mxGeometry x="1650" y="1150" width="520" height="620" as="geometry" />
        </mxCell>
        <mxCell id="aoM_VOd6xSWKAF-DBPvm-416" value="" style="edgeStyle=orthogonalEdgeStyle;rounded=0;orthogonalLoop=1;jettySize=auto;html=1;fontFamily=Times New Roman;fontSize=14;fontColor=#050505;strokeColor=#7EA6E0;entryX=0;entryY=0.5;entryDx=0;entryDy=0;" edge="1" parent="1" source="aoM_VOd6xSWKAF-DBPvm-345" target="aoM_VOd6xSWKAF-DBPvm-323">
          <mxGeometry relative="1" as="geometry">
            <mxPoint x="405" y="1450" as="targetPoint" />
            <Array as="points">
              <mxPoint x="3220" y="1450" />
              <mxPoint x="3220" y="940" />
            </Array>
          </mxGeometry>
        </mxCell>
        <mxCell id="aoM_VOd6xSWKAF-DBPvm-418" value="" style="edgeStyle=orthogonalEdgeStyle;rounded=0;orthogonalLoop=1;jettySize=auto;html=1;fontFamily=Times New Roman;fontSize=14;fontColor=#050505;strokeColor=#7EA6E0;entryX=1;entryY=0.5;entryDx=0;entryDy=0;" edge="1" parent="1" source="aoM_VOd6xSWKAF-DBPvm-323" target="aoM_VOd6xSWKAF-DBPvm-358">
          <mxGeometry relative="1" as="geometry">
            <mxPoint x="3435" y="940.0000000000002" as="targetPoint" />
            <Array as="points">
              <mxPoint x="3380" y="940" />
              <mxPoint x="3380" y="1500" />
            </Array>
          </mxGeometry>
        </mxCell>
        <mxCell id="aoM_VOd6xSWKAF-DBPvm-425" value="" style="edgeStyle=orthogonalEdgeStyle;rounded=0;orthogonalLoop=1;jettySize=auto;html=1;fontFamily=Times New Roman;fontSize=14;fontColor=#050505;strokeColor=#7EA6E0;entryX=0.25;entryY=1;entryDx=0;entryDy=0;" edge="1" parent="1" source="aoM_VOd6xSWKAF-DBPvm-349" target="aoM_VOd6xSWKAF-DBPvm-325">
          <mxGeometry relative="1" as="geometry">
            <mxPoint x="600" y="1550" as="targetPoint" />
            <Array as="points">
              <mxPoint x="270" y="1660" />
              <mxPoint x="3265" y="1660" />
            </Array>
          </mxGeometry>
        </mxCell>
        <mxCell id="aoM_VOd6xSWKAF-DBPvm-349" value="Получить обратную связь" style="rounded=1;whiteSpace=wrap;html=1;fontFamily=Times New Roman;fontSize=14;" vertex="1" parent="1">
          <mxGeometry x="210" y="1560" width="120" height="60" as="geometry" />
        </mxCell>
        <mxCell id="aoM_VOd6xSWKAF-DBPvm-420" value="" style="edgeStyle=orthogonalEdgeStyle;rounded=0;orthogonalLoop=1;jettySize=auto;html=1;fontFamily=Times New Roman;fontSize=14;fontColor=#050505;strokeColor=#7EA6E0;entryX=1;entryY=0.5;entryDx=0;entryDy=0;" edge="1" parent="1" source="aoM_VOd6xSWKAF-DBPvm-323" target="aoM_VOd6xSWKAF-DBPvm-361">
          <mxGeometry relative="1" as="geometry">
            <mxPoint x="3435" y="940.0000000000002" as="targetPoint" />
            <Array as="points">
              <mxPoint x="3410" y="940" />
              <mxPoint x="3410" y="1560" />
            </Array>
          </mxGeometry>
        </mxCell>
        <mxCell id="aoM_VOd6xSWKAF-DBPvm-423" value="" style="edgeStyle=orthogonalEdgeStyle;rounded=0;orthogonalLoop=1;jettySize=auto;html=1;fontFamily=Times New Roman;fontSize=14;fontColor=#050505;strokeColor=#7EA6E0;" edge="1" parent="1" source="aoM_VOd6xSWKAF-DBPvm-323">
          <mxGeometry relative="1" as="geometry">
            <mxPoint x="330" y="1610" as="targetPoint" />
            <Array as="points">
              <mxPoint x="3440" y="940" />
              <mxPoint x="3440" y="1610" />
              <mxPoint x="330" y="1610" />
            </Array>
          </mxGeometry>
        </mxCell>
        <mxCell id="aoM_VOd6xSWKAF-DBPvm-427" value="" style="edgeStyle=orthogonalEdgeStyle;rounded=0;orthogonalLoop=1;jettySize=auto;html=1;fontFamily=Times New Roman;fontSize=14;fontColor=#050505;strokeColor=#7EA6E0;entryX=0.5;entryY=1;entryDx=0;entryDy=0;" edge="1" parent="1" source="aoM_VOd6xSWKAF-DBPvm-361" target="aoM_VOd6xSWKAF-DBPvm-325">
          <mxGeometry relative="1" as="geometry">
            <mxPoint x="1155" y="1670" as="targetPoint" />
            <Array as="points">
              <mxPoint x="1155" y="1660" />
              <mxPoint x="3295" y="1660" />
            </Array>
          </mxGeometry>
        </mxCell>
        <mxCell id="aoM_VOd6xSWKAF-DBPvm-431" value="" style="edgeStyle=orthogonalEdgeStyle;rounded=0;orthogonalLoop=1;jettySize=auto;html=1;fontFamily=Times New Roman;fontSize=14;fontColor=#050505;strokeColor=#7EA6E0;entryX=0.75;entryY=1;entryDx=0;entryDy=0;" edge="1" parent="1" source="aoM_VOd6xSWKAF-DBPvm-358" target="aoM_VOd6xSWKAF-DBPvm-325">
          <mxGeometry relative="1" as="geometry">
            <mxPoint x="1555" y="1610" as="targetPoint" />
            <Array as="points">
              <mxPoint x="1555" y="1660" />
              <mxPoint x="3325" y="1660" />
            </Array>
          </mxGeometry>
        </mxCell>
        <mxCell id="aoM_VOd6xSWKAF-DBPvm-435" value="" style="edgeStyle=orthogonalEdgeStyle;rounded=0;orthogonalLoop=1;jettySize=auto;html=1;fontFamily=Times New Roman;fontSize=14;fontColor=#000000;strokeColor=#7EA6E0;entryX=0;entryY=0.5;entryDx=0;entryDy=0;" edge="1" parent="1" source="aoM_VOd6xSWKAF-DBPvm-432" target="aoM_VOd6xSWKAF-DBPvm-332">
          <mxGeometry relative="1" as="geometry">
            <mxPoint x="410" y="1720" as="targetPoint" />
            <Array as="points">
              <mxPoint x="1670" y="1740" />
              <mxPoint x="1670" y="1030" />
            </Array>
          </mxGeometry>
        </mxCell>
        <mxCell id="aoM_VOd6xSWKAF-DBPvm-432" value="&#xa;&#xa;&lt;span style=&quot;font-family: &amp;quot;times new roman&amp;quot;; font-size: 14px; font-style: normal; font-weight: 400; letter-spacing: normal; text-align: center; text-indent: 0px; text-transform: none; word-spacing: 0px; background-color: rgb(248, 249, 250); display: inline; float: none;&quot;&gt;Дать стажеру обратную связь и отработать задачу в 1С&lt;/span&gt;&#xa;&#xa;" style="whiteSpace=wrap;html=1;fontSize=14;fontFamily=Times New Roman;fillColor=#FFFFFF;rounded=1;fontColor=#000000;" vertex="1" parent="1">
          <mxGeometry x="210" y="1680" width="120" height="80" as="geometry" />
        </mxCell>
        <mxCell id="aoM_VOd6xSWKAF-DBPvm-433" value="" style="edgeStyle=orthogonalEdgeStyle;rounded=0;orthogonalLoop=1;jettySize=auto;html=1;fontFamily=Times New Roman;fontSize=14;fontColor=#050505;strokeColor=#7EA6E0;" edge="1" parent="1" source="aoM_VOd6xSWKAF-DBPvm-325" target="aoM_VOd6xSWKAF-DBPvm-432">
          <mxGeometry relative="1" as="geometry">
            <Array as="points">
              <mxPoint x="3480" y="1030" />
              <mxPoint x="3480" y="1700" />
            </Array>
          </mxGeometry>
        </mxCell>
        <mxCell id="aoM_VOd6xSWKAF-DBPvm-439" value="" style="edgeStyle=orthogonalEdgeStyle;rounded=0;orthogonalLoop=1;jettySize=auto;html=1;fontFamily=Times New Roman;fontSize=14;fontColor=#000000;strokeColor=#67AB9F;" edge="1" parent="1" source="aoM_VOd6xSWKAF-DBPvm-397" target="aoM_VOd6xSWKAF-DBPvm-438">
          <mxGeometry relative="1" as="geometry" />
        </mxCell>
        <mxCell id="aoM_VOd6xSWKAF-DBPvm-441" value="" style="edgeStyle=orthogonalEdgeStyle;rounded=0;orthogonalLoop=1;jettySize=auto;html=1;fontFamily=Times New Roman;fontSize=14;fontColor=#000000;strokeColor=#67AB9F;entryX=0.5;entryY=1;entryDx=0;entryDy=0;" edge="1" parent="1" source="aoM_VOd6xSWKAF-DBPvm-438" target="aoM_VOd6xSWKAF-DBPvm-312">
          <mxGeometry relative="1" as="geometry">
            <mxPoint x="4150" y="1940" as="targetPoint" />
            <Array as="points">
              <mxPoint x="4150" y="1790" />
              <mxPoint x="1920" y="1790" />
              <mxPoint x="1920" y="750" />
              <mxPoint x="1760" y="750" />
            </Array>
          </mxGeometry>
        </mxCell>
        <mxCell id="aoM_VOd6xSWKAF-DBPvm-443" value="" style="edgeStyle=orthogonalEdgeStyle;rounded=0;orthogonalLoop=1;jettySize=auto;html=1;fontFamily=Times New Roman;fontSize=14;fontColor=#000000;strokeColor=#67AB9F;entryX=0.75;entryY=1;entryDx=0;entryDy=0;" edge="1" parent="1" source="aoM_VOd6xSWKAF-DBPvm-436" target="aoM_VOd6xSWKAF-DBPvm-312">
          <mxGeometry relative="1" as="geometry">
            <mxPoint x="3290" y="2020" as="targetPoint" />
            <Array as="points">
              <mxPoint x="1950" y="1910" />
              <mxPoint x="1950" y="720" />
              <mxPoint x="1790" y="720" />
            </Array>
          </mxGeometry>
        </mxCell>
        <mxCell id="aoM_VOd6xSWKAF-DBPvm-445" value="" style="edgeStyle=orthogonalEdgeStyle;rounded=0;orthogonalLoop=1;jettySize=auto;html=1;fontFamily=Times New Roman;fontSize=14;fontColor=#000000;strokeColor=#67AB9F;entryX=0;entryY=0.25;entryDx=0;entryDy=0;" edge="1" parent="1" source="aoM_VOd6xSWKAF-DBPvm-312" target="aoM_VOd6xSWKAF-DBPvm-436">
          <mxGeometry relative="1" as="geometry">
            <mxPoint x="1900" y="620" as="targetPoint" />
            <Array as="points">
              <mxPoint x="2525" y="630" />
              <mxPoint x="2525" y="1895" />
            </Array>
          </mxGeometry>
        </mxCell>
        <mxCell id="aoM_VOd6xSWKAF-DBPvm-447" value="" style="edgeStyle=orthogonalEdgeStyle;rounded=0;orthogonalLoop=1;jettySize=auto;html=1;fontFamily=Times New Roman;fontSize=14;fontColor=#000000;strokeColor=#67AB9F;" edge="1" parent="1" source="aoM_VOd6xSWKAF-DBPvm-436" target="aoM_VOd6xSWKAF-DBPvm-446">
          <mxGeometry relative="1" as="geometry" />
        </mxCell>
        <mxCell id="aoM_VOd6xSWKAF-DBPvm-449" value="" style="edgeStyle=orthogonalEdgeStyle;rounded=0;orthogonalLoop=1;jettySize=auto;html=1;fontFamily=Times New Roman;fontSize=14;fontColor=#000000;strokeColor=#67AB9F;entryX=1;entryY=0.25;entryDx=0;entryDy=0;" edge="1" parent="1" source="aoM_VOd6xSWKAF-DBPvm-446" target="aoM_VOd6xSWKAF-DBPvm-323">
          <mxGeometry relative="1" as="geometry">
            <mxPoint x="4290.000000000001" y="1910" as="targetPoint" />
            <Array as="points">
              <mxPoint x="4240" y="1910" />
              <mxPoint x="4240" y="925" />
            </Array>
          </mxGeometry>
        </mxCell>
        <mxCell id="aoM_VOd6xSWKAF-DBPvm-453" value="" style="edgeStyle=orthogonalEdgeStyle;rounded=0;orthogonalLoop=1;jettySize=auto;html=1;fontFamily=Times New Roman;fontSize=14;fontColor=#000000;strokeColor=#67AB9F;" edge="1" parent="1" source="aoM_VOd6xSWKAF-DBPvm-325" target="aoM_VOd6xSWKAF-DBPvm-452">
          <mxGeometry relative="1" as="geometry">
            <Array as="points">
              <mxPoint x="4280" y="1010" />
              <mxPoint x="4280" y="2000" />
            </Array>
          </mxGeometry>
        </mxCell>
        <mxCell id="aoM_VOd6xSWKAF-DBPvm-455" value="" style="edgeStyle=orthogonalEdgeStyle;rounded=0;orthogonalLoop=1;jettySize=auto;html=1;fontFamily=Times New Roman;fontSize=14;fontColor=#000000;strokeColor=#67AB9F;entryX=1;entryY=0.75;entryDx=0;entryDy=0;" edge="1" parent="1" source="aoM_VOd6xSWKAF-DBPvm-452" target="aoM_VOd6xSWKAF-DBPvm-332">
          <mxGeometry relative="1" as="geometry">
            <mxPoint x="4150" y="2110" as="targetPoint" />
            <Array as="points">
              <mxPoint x="1860" y="2000" />
              <mxPoint x="1860" y="1045" />
            </Array>
          </mxGeometry>
        </mxCell>
        <mxCell id="aoM_VOd6xSWKAF-DBPvm-460" value="" style="swimlane;startSize=0;fontFamily=Times New Roman;fontSize=14;strokeColor=#CC0000;" vertex="1" parent="1">
          <mxGeometry x="180" y="2060" width="320" height="290" as="geometry" />
        </mxCell>
        <mxCell id="aoM_VOd6xSWKAF-DBPvm-503" value="Сообщить о выходе стажера" style="whiteSpace=wrap;html=1;fontSize=14;fontFamily=Times New Roman;rounded=1;" vertex="1" parent="aoM_VOd6xSWKAF-DBPvm-460">
          <mxGeometry x="40" y="30" width="120" height="60" as="geometry" />
        </mxCell>
        <mxCell id="aoM_VOd6xSWKAF-DBPvm-510" value="Поставить неявку в задаче в 1С" style="whiteSpace=wrap;html=1;fontSize=14;fontFamily=Times New Roman;fillColor=#FFFFFF;strokeColor=#000000;fontColor=#000000;rounded=1;" vertex="1" parent="aoM_VOd6xSWKAF-DBPvm-460">
          <mxGeometry x="40" y="150" width="120" height="60" as="geometry" />
        </mxCell>
        <mxCell id="aoM_VOd6xSWKAF-DBPvm-461" value="" style="swimlane;startSize=0;fontFamily=Times New Roman;fontSize=14;strokeColor=#CC0000;" vertex="1" parent="1">
          <mxGeometry x="680" y="2060" width="180" height="290" as="geometry" />
        </mxCell>
        <mxCell id="aoM_VOd6xSWKAF-DBPvm-462" value="" style="swimlane;startSize=0;fontFamily=Times New Roman;fontSize=14;strokeColor=#CC0000;" vertex="1" parent="1">
          <mxGeometry x="500" y="2060" width="180" height="290" as="geometry" />
        </mxCell>
        <mxCell id="aoM_VOd6xSWKAF-DBPvm-464" value="" style="swimlane;startSize=0;fontFamily=Times New Roman;fontSize=14;strokeColor=#CC0000;" vertex="1" parent="1">
          <mxGeometry x="1040" y="2060" width="230" height="290" as="geometry" />
        </mxCell>
        <mxCell id="aoM_VOd6xSWKAF-DBPvm-463" value="" style="swimlane;startSize=0;fontFamily=Times New Roman;fontSize=14;strokeColor=#CC0000;" vertex="1" parent="aoM_VOd6xSWKAF-DBPvm-464">
          <mxGeometry x="-180" width="180" height="290" as="geometry" />
        </mxCell>
        <mxCell id="aoM_VOd6xSWKAF-DBPvm-465" value="" style="swimlane;startSize=0;fontFamily=Times New Roman;fontSize=14;strokeColor=#CC0000;" vertex="1" parent="1">
          <mxGeometry x="1270" y="2060" width="190" height="290" as="geometry" />
        </mxCell>
        <mxCell id="aoM_VOd6xSWKAF-DBPvm-466" value="" style="swimlane;startSize=0;fontFamily=Times New Roman;fontSize=14;strokeColor=#CC0000;" vertex="1" parent="1">
          <mxGeometry x="1460" y="2060" width="190" height="290" as="geometry" />
        </mxCell>
        <mxCell id="aoM_VOd6xSWKAF-DBPvm-467" value="" style="swimlane;startSize=0;fontFamily=Times New Roman;fontSize=14;strokeColor=#CC0000;" vertex="1" parent="1">
          <mxGeometry x="1650" y="2060" width="520" height="290" as="geometry" />
        </mxCell>
        <mxCell id="aoM_VOd6xSWKAF-DBPvm-468" value="" style="swimlane;startSize=0;fontFamily=Times New Roman;fontSize=14;strokeColor=#CC0000;" vertex="1" parent="1">
          <mxGeometry x="2170" y="2060" width="840" height="290" as="geometry" />
        </mxCell>
        <mxCell id="aoM_VOd6xSWKAF-DBPvm-469" value="" style="swimlane;startSize=0;fontFamily=Times New Roman;fontSize=14;strokeColor=#CC0000;" vertex="1" parent="1">
          <mxGeometry x="3010" y="2060" width="190" height="290" as="geometry" />
        </mxCell>
        <mxCell id="aoM_VOd6xSWKAF-DBPvm-471" value="" style="swimlane;startSize=0;fontFamily=Times New Roman;fontSize=14;strokeColor=#CC0000;" vertex="1" parent="1">
          <mxGeometry x="3200" y="2060" width="670" height="290" as="geometry" />
        </mxCell>
        <mxCell id="aoM_VOd6xSWKAF-DBPvm-507" value="Сообщить о невыходе стажера" style="rounded=1;whiteSpace=wrap;html=1;fontFamily=Times New Roman;fontSize=14;fontColor=#000000;strokeColor=#000000;fillColor=#FFFFFF;" vertex="1" parent="aoM_VOd6xSWKAF-DBPvm-471">
          <mxGeometry x="50" y="30" width="120" height="60" as="geometry" />
        </mxCell>
        <mxCell id="aoM_VOd6xSWKAF-DBPvm-475" value="" style="swimlane;startSize=0;fontFamily=Times New Roman;fontSize=14;strokeColor=#CC0000;" vertex="1" parent="1">
          <mxGeometry x="3870" y="2060" width="190" height="290" as="geometry" />
        </mxCell>
        <mxCell id="aoM_VOd6xSWKAF-DBPvm-476" value="" style="swimlane;startSize=0;fontFamily=Times New Roman;fontSize=14;strokeColor=#CC0000;" vertex="1" parent="1">
          <mxGeometry x="4060" y="2060" width="280" height="290" as="geometry" />
        </mxCell>
        <mxCell id="aoM_VOd6xSWKAF-DBPvm-480" value="" style="swimlane;startSize=0;fontFamily=Times New Roman;fontSize=14;strokeColor=#CC0000;" vertex="1" parent="1">
          <mxGeometry x="4340" y="2060" width="260" height="290" as="geometry" />
        </mxCell>
        <mxCell id="aoM_VOd6xSWKAF-DBPvm-481" value="" style="swimlane;startSize=0;fontFamily=Times New Roman;fontSize=14;strokeColor=#CC0000;" vertex="1" parent="1">
          <mxGeometry x="4600" y="2060" width="230" height="290" as="geometry" />
        </mxCell>
        <mxCell id="aoM_VOd6xSWKAF-DBPvm-486" value="" style="swimlane;startSize=0;fontFamily=Times New Roman;fontSize=14;strokeColor=#CC0000;" vertex="1" parent="1">
          <mxGeometry x="4830" y="2060" width="190" height="290" as="geometry" />
        </mxCell>
        <mxCell id="aoM_VOd6xSWKAF-DBPvm-487" value="" style="swimlane;startSize=0;fontFamily=Times New Roman;fontSize=14;strokeColor=#CC0000;" vertex="1" parent="1">
          <mxGeometry x="5020" y="1770" width="190" height="290" as="geometry" />
        </mxCell>
        <mxCell id="aoM_VOd6xSWKAF-DBPvm-488" value="" style="swimlane;startSize=0;fontFamily=Times New Roman;fontSize=14;strokeColor=#CC0000;" vertex="1" parent="aoM_VOd6xSWKAF-DBPvm-487">
          <mxGeometry x="-190" width="190" height="290" as="geometry" />
        </mxCell>
        <mxCell id="aoM_VOd6xSWKAF-DBPvm-489" value="" style="swimlane;startSize=0;fontFamily=Times New Roman;fontSize=14;strokeColor=#CC0000;" vertex="1" parent="1">
          <mxGeometry x="5020" y="2060" width="190" height="290" as="geometry" />
        </mxCell>
        <mxCell id="aoM_VOd6xSWKAF-DBPvm-497" value="" style="swimlane;startSize=0;fontFamily=Times New Roman;fontSize=14;strokeColor=#CC0000;" vertex="1" parent="1">
          <mxGeometry x="5210" y="2060" width="190" height="290" as="geometry" />
        </mxCell>
        <mxCell id="aoM_VOd6xSWKAF-DBPvm-498" value="" style="swimlane;startSize=0;fontFamily=Times New Roman;fontSize=14;strokeColor=#CC0000;" vertex="1" parent="1">
          <mxGeometry x="5400" y="2060" width="190" height="290" as="geometry" />
        </mxCell>
        <mxCell id="aoM_VOd6xSWKAF-DBPvm-499" value="" style="swimlane;startSize=0;fontFamily=Times New Roman;fontSize=14;strokeColor=#CC0000;" vertex="1" parent="1">
          <mxGeometry x="5590" y="2060" width="160" height="290" as="geometry" />
        </mxCell>
        <mxCell id="aoM_VOd6xSWKAF-DBPvm-504" value="" style="edgeStyle=orthogonalEdgeStyle;rounded=0;orthogonalLoop=1;jettySize=auto;html=1;fontFamily=Times New Roman;fontSize=14;fontColor=#000000;strokeColor=#0000CC;" edge="1" parent="1" source="aoM_VOd6xSWKAF-DBPvm-397" target="aoM_VOd6xSWKAF-DBPvm-503">
          <mxGeometry relative="1" as="geometry">
            <Array as="points">
              <mxPoint x="3210" y="1830" />
              <mxPoint x="3210" y="2120" />
            </Array>
          </mxGeometry>
        </mxCell>
        <mxCell id="aoM_VOd6xSWKAF-DBPvm-506" value="" style="edgeStyle=orthogonalEdgeStyle;rounded=0;orthogonalLoop=1;jettySize=auto;html=1;fontFamily=Times New Roman;fontSize=14;fontColor=#000000;strokeColor=#0000CC;entryX=0;entryY=0.5;entryDx=0;entryDy=0;" edge="1" parent="1" source="aoM_VOd6xSWKAF-DBPvm-503" target="aoM_VOd6xSWKAF-DBPvm-312">
          <mxGeometry relative="1" as="geometry">
            <mxPoint x="280" y="2010" as="targetPoint" />
            <Array as="points">
              <mxPoint x="330" y="2030" />
              <mxPoint x="1660" y="2030" />
              <mxPoint x="1660" y="620" />
            </Array>
          </mxGeometry>
        </mxCell>
        <mxCell id="aoM_VOd6xSWKAF-DBPvm-509" value="" style="edgeStyle=orthogonalEdgeStyle;rounded=0;orthogonalLoop=1;jettySize=auto;html=1;fontFamily=Times New Roman;fontSize=14;fontColor=#000000;strokeColor=#0000CC;" edge="1" parent="1" source="aoM_VOd6xSWKAF-DBPvm-312">
          <mxGeometry relative="1" as="geometry">
            <mxPoint x="3250" y="2100" as="targetPoint" />
            <Array as="points">
              <mxPoint x="2150" y="620" />
              <mxPoint x="2150" y="2100" />
              <mxPoint x="3250" y="2100" />
            </Array>
          </mxGeometry>
        </mxCell>
        <mxCell id="aoM_VOd6xSWKAF-DBPvm-511" value="" style="edgeStyle=orthogonalEdgeStyle;rounded=0;orthogonalLoop=1;jettySize=auto;html=1;fontFamily=Times New Roman;fontSize=14;fontColor=#000000;strokeColor=#0000CC;" edge="1" parent="1" source="aoM_VOd6xSWKAF-DBPvm-507" target="aoM_VOd6xSWKAF-DBPvm-510">
          <mxGeometry relative="1" as="geometry">
            <Array as="points">
              <mxPoint x="3310" y="2240" />
            </Array>
          </mxGeometry>
        </mxCell>
        <mxCell id="aoM_VOd6xSWKAF-DBPvm-513" value="" style="edgeStyle=orthogonalEdgeStyle;rounded=0;orthogonalLoop=1;jettySize=auto;html=1;fontFamily=Times New Roman;fontSize=14;fontColor=#000000;strokeColor=#0000CC;entryX=1;entryY=0.75;entryDx=0;entryDy=0;" edge="1" parent="1" source="aoM_VOd6xSWKAF-DBPvm-510" target="aoM_VOd6xSWKAF-DBPvm-323">
          <mxGeometry relative="1" as="geometry">
            <mxPoint x="280" y="2350" as="targetPoint" />
            <Array as="points">
              <mxPoint x="280" y="2300" />
              <mxPoint x="3520" y="2300" />
              <mxPoint x="3520" y="955" />
            </Array>
          </mxGeometry>
        </mxCell>
        <mxCell id="aoM_VOd6xSWKAF-DBPvm-517" value="" style="edgeStyle=orthogonalEdgeStyle;rounded=0;orthogonalLoop=1;jettySize=auto;html=1;fontFamily=Times New Roman;fontSize=14;fontColor=#000000;strokeColor=#0000CC;entryX=1;entryY=0.25;entryDx=0;entryDy=0;" edge="1" parent="1" source="aoM_VOd6xSWKAF-DBPvm-325" target="aoM_VOd6xSWKAF-DBPvm-332">
          <mxGeometry relative="1" as="geometry">
            <mxPoint x="3155" y="1030" as="targetPoint" />
            <Array as="points">
              <mxPoint x="2640" y="1015" />
              <mxPoint x="2640" y="1015" />
            </Array>
          </mxGeometry>
        </mxCell>
        <mxCell id="aoM_VOd6xSWKAF-DBPvm-520" value="" style="swimlane;startSize=0;fontFamily=Times New Roman;fontSize=14;strokeColor=#CC0000;" vertex="1" parent="1">
          <mxGeometry x="180" y="2350" width="320" height="640" as="geometry" />
        </mxCell>
        <mxCell id="aoM_VOd6xSWKAF-DBPvm-543" value="Провести адаптацию сотрудника в магазине" style="rounded=1;whiteSpace=wrap;html=1;fontFamily=Times New Roman;fontSize=14;fontColor=#000000;strokeColor=#000000;fillColor=#FFFFFF;" vertex="1" parent="aoM_VOd6xSWKAF-DBPvm-520">
          <mxGeometry x="50" y="20" width="120" height="80" as="geometry" />
        </mxCell>
        <mxCell id="aoM_VOd6xSWKAF-DBPvm-547" value="Заполнить характеристику на ССС" style="whiteSpace=wrap;html=1;fontSize=14;fontFamily=Times New Roman;fillColor=#FFFFFF;strokeColor=#000000;fontColor=#000000;rounded=1;" vertex="1" parent="aoM_VOd6xSWKAF-DBPvm-520">
          <mxGeometry x="50" y="120" width="120" height="60" as="geometry" />
        </mxCell>
        <mxCell id="aoM_VOd6xSWKAF-DBPvm-548" value="" style="edgeStyle=orthogonalEdgeStyle;rounded=0;orthogonalLoop=1;jettySize=auto;html=1;fontFamily=Times New Roman;fontSize=14;fontColor=#000000;strokeColor=#999900;" edge="1" parent="aoM_VOd6xSWKAF-DBPvm-520" source="aoM_VOd6xSWKAF-DBPvm-543" target="aoM_VOd6xSWKAF-DBPvm-547">
          <mxGeometry relative="1" as="geometry" />
        </mxCell>
        <mxCell id="aoM_VOd6xSWKAF-DBPvm-523" value="" style="swimlane;startSize=0;fontFamily=Times New Roman;fontSize=14;strokeColor=#CC0000;" vertex="1" parent="1">
          <mxGeometry x="500" y="2350" width="180" height="640" as="geometry" />
        </mxCell>
        <mxCell id="aoM_VOd6xSWKAF-DBPvm-524" value="" style="swimlane;startSize=0;fontFamily=Times New Roman;fontSize=14;strokeColor=#CC0000;" vertex="1" parent="1">
          <mxGeometry x="680" y="2350" width="180" height="640" as="geometry" />
        </mxCell>
        <mxCell id="aoM_VOd6xSWKAF-DBPvm-525" value="" style="swimlane;startSize=0;fontFamily=Times New Roman;fontSize=14;strokeColor=#CC0000;" vertex="1" parent="1">
          <mxGeometry x="860" y="2350" width="180" height="640" as="geometry" />
        </mxCell>
        <mxCell id="aoM_VOd6xSWKAF-DBPvm-527" value="" style="swimlane;startSize=0;fontFamily=Times New Roman;fontSize=14;strokeColor=#CC0000;" vertex="1" parent="1">
          <mxGeometry x="1040" y="2350" width="230" height="640" as="geometry" />
        </mxCell>
        <mxCell id="aoM_VOd6xSWKAF-DBPvm-528" value="" style="swimlane;startSize=0;fontFamily=Times New Roman;fontSize=14;strokeColor=#CC0000;" vertex="1" parent="1">
          <mxGeometry x="1270" y="2350" width="190" height="640" as="geometry" />
        </mxCell>
        <mxCell id="aoM_VOd6xSWKAF-DBPvm-529" value="" style="swimlane;startSize=0;fontFamily=Times New Roman;fontSize=14;strokeColor=#CC0000;" vertex="1" parent="1">
          <mxGeometry x="1460" y="2350" width="190" height="640" as="geometry" />
        </mxCell>
        <mxCell id="aoM_VOd6xSWKAF-DBPvm-530" value="" style="swimlane;startSize=0;fontFamily=Times New Roman;fontSize=14;strokeColor=#CC0000;" vertex="1" parent="1">
          <mxGeometry x="1650" y="2350" width="520" height="640" as="geometry" />
        </mxCell>
        <mxCell id="aoM_VOd6xSWKAF-DBPvm-531" value="" style="swimlane;startSize=0;fontFamily=Times New Roman;fontSize=14;strokeColor=#CC0000;" vertex="1" parent="1">
          <mxGeometry x="2170" y="2350" width="840" height="640" as="geometry" />
        </mxCell>
        <mxCell id="aoM_VOd6xSWKAF-DBPvm-549" value="Проработать заявку по навыкам на ССС" style="rounded=1;whiteSpace=wrap;html=1;fontFamily=Times New Roman;fontSize=14;fontColor=#000000;strokeColor=#000000;fillColor=#FFFFFF;" vertex="1" parent="aoM_VOd6xSWKAF-DBPvm-531">
          <mxGeometry x="330" y="120" width="120" height="60" as="geometry" />
        </mxCell>
        <mxCell id="aoM_VOd6xSWKAF-DBPvm-554" value="Внести корректировки в систему обучения" style="whiteSpace=wrap;html=1;fontSize=14;fontFamily=Times New Roman;fillColor=#FFFFFF;strokeColor=#000000;fontColor=#000000;rounded=1;" vertex="1" parent="aoM_VOd6xSWKAF-DBPvm-531">
          <mxGeometry x="330" y="200" width="120" height="60" as="geometry" />
        </mxCell>
        <mxCell id="aoM_VOd6xSWKAF-DBPvm-555" value="" style="edgeStyle=orthogonalEdgeStyle;rounded=0;orthogonalLoop=1;jettySize=auto;html=1;fontFamily=Times New Roman;fontSize=14;fontColor=#000000;strokeColor=#999900;" edge="1" parent="aoM_VOd6xSWKAF-DBPvm-531" source="aoM_VOd6xSWKAF-DBPvm-549" target="aoM_VOd6xSWKAF-DBPvm-554">
          <mxGeometry relative="1" as="geometry" />
        </mxCell>
        <mxCell id="aoM_VOd6xSWKAF-DBPvm-556" value="Контроль работы наставников" style="whiteSpace=wrap;html=1;fontSize=14;fontFamily=Times New Roman;fillColor=#FFFFFF;strokeColor=#000000;fontColor=#000000;rounded=1;" vertex="1" parent="aoM_VOd6xSWKAF-DBPvm-531">
          <mxGeometry x="330" y="280" width="120" height="60" as="geometry" />
        </mxCell>
        <mxCell id="aoM_VOd6xSWKAF-DBPvm-557" value="" style="edgeStyle=orthogonalEdgeStyle;rounded=0;orthogonalLoop=1;jettySize=auto;html=1;fontFamily=Times New Roman;fontSize=14;fontColor=#000000;strokeColor=#999900;" edge="1" parent="aoM_VOd6xSWKAF-DBPvm-531" source="aoM_VOd6xSWKAF-DBPvm-554" target="aoM_VOd6xSWKAF-DBPvm-556">
          <mxGeometry relative="1" as="geometry" />
        </mxCell>
        <mxCell id="aoM_VOd6xSWKAF-DBPvm-532" value="" style="swimlane;startSize=0;fontFamily=Times New Roman;fontSize=14;strokeColor=#CC0000;" vertex="1" parent="1">
          <mxGeometry x="3010" y="2350" width="190" height="640" as="geometry" />
        </mxCell>
        <mxCell id="aoM_VOd6xSWKAF-DBPvm-533" value="" style="swimlane;startSize=0;fontFamily=Times New Roman;fontSize=14;strokeColor=#CC0000;" vertex="1" parent="1">
          <mxGeometry x="3200" y="2350" width="670" height="640" as="geometry" />
        </mxCell>
        <mxCell id="aoM_VOd6xSWKAF-DBPvm-534" value="" style="swimlane;startSize=0;fontFamily=Times New Roman;fontSize=14;strokeColor=#CC0000;" vertex="1" parent="1">
          <mxGeometry x="3870" y="2350" width="190" height="640" as="geometry" />
        </mxCell>
        <mxCell id="aoM_VOd6xSWKAF-DBPvm-535" value="" style="swimlane;startSize=0;fontFamily=Times New Roman;fontSize=14;strokeColor=#CC0000;" vertex="1" parent="1">
          <mxGeometry x="4060" y="2350" width="280" height="640" as="geometry" />
        </mxCell>
        <mxCell id="aoM_VOd6xSWKAF-DBPvm-536" value="" style="swimlane;startSize=0;fontFamily=Times New Roman;fontSize=14;strokeColor=#CC0000;" vertex="1" parent="1">
          <mxGeometry x="4340" y="2350" width="260" height="640" as="geometry" />
        </mxCell>
        <mxCell id="aoM_VOd6xSWKAF-DBPvm-537" value="" style="swimlane;startSize=0;fontFamily=Times New Roman;fontSize=14;strokeColor=#CC0000;" vertex="1" parent="1">
          <mxGeometry x="4600" y="2350" width="230" height="640" as="geometry" />
        </mxCell>
        <mxCell id="aoM_VOd6xSWKAF-DBPvm-538" value="" style="swimlane;startSize=0;fontFamily=Times New Roman;fontSize=14;strokeColor=#CC0000;" vertex="1" parent="1">
          <mxGeometry x="4830" y="2350" width="190" height="640" as="geometry" />
        </mxCell>
        <mxCell id="aoM_VOd6xSWKAF-DBPvm-539" value="" style="swimlane;startSize=0;fontFamily=Times New Roman;fontSize=14;strokeColor=#CC0000;" vertex="1" parent="1">
          <mxGeometry x="5020" y="2350" width="190" height="640" as="geometry" />
        </mxCell>
        <mxCell id="aoM_VOd6xSWKAF-DBPvm-540" value="" style="swimlane;startSize=0;fontFamily=Times New Roman;fontSize=14;strokeColor=#CC0000;" vertex="1" parent="1">
          <mxGeometry x="5210" y="2350" width="190" height="640" as="geometry" />
        </mxCell>
        <mxCell id="aoM_VOd6xSWKAF-DBPvm-541" value="" style="swimlane;startSize=0;fontFamily=Times New Roman;fontSize=14;strokeColor=#CC0000;" vertex="1" parent="1">
          <mxGeometry x="5400" y="2350" width="190" height="640" as="geometry" />
        </mxCell>
        <mxCell id="aoM_VOd6xSWKAF-DBPvm-542" value="" style="swimlane;startSize=0;fontFamily=Times New Roman;fontSize=14;strokeColor=#CC0000;" vertex="1" parent="1">
          <mxGeometry x="5590" y="2350" width="160" height="640" as="geometry" />
        </mxCell>
        <mxCell id="aoM_VOd6xSWKAF-DBPvm-551" value="" style="edgeStyle=orthogonalEdgeStyle;rounded=0;orthogonalLoop=1;jettySize=auto;html=1;fontFamily=Times New Roman;fontSize=14;fontColor=#000000;strokeColor=#999900;" edge="1" parent="1" source="aoM_VOd6xSWKAF-DBPvm-547" target="aoM_VOd6xSWKAF-DBPvm-549">
          <mxGeometry relative="1" as="geometry">
            <mxPoint x="430" y="2500" as="targetPoint" />
          </mxGeometry>
        </mxCell>
        <mxCell id="aoM_VOd6xSWKAF-DBPvm-558" value="" style="swimlane;startSize=0;fontFamily=Times New Roman;fontSize=14;strokeColor=#CC0000;" vertex="1" parent="1">
          <mxGeometry x="180" y="2990" width="320" height="680" as="geometry" />
        </mxCell>
        <mxCell id="aoM_VOd6xSWKAF-DBPvm-582" value="Рекомендовать сотрудников на обучение в КР" style="whiteSpace=wrap;html=1;fontSize=14;fontFamily=Times New Roman;fillColor=#FFFFFF;strokeColor=#000000;fontColor=#000000;rounded=1;" vertex="1" parent="aoM_VOd6xSWKAF-DBPvm-558">
          <mxGeometry x="50" y="30" width="120" height="60" as="geometry" />
        </mxCell>
        <mxCell id="aoM_VOd6xSWKAF-DBPvm-559" value="" style="swimlane;startSize=0;fontFamily=Times New Roman;fontSize=14;strokeColor=#CC0000;" vertex="1" parent="1">
          <mxGeometry x="500" y="2990" width="180" height="680" as="geometry" />
        </mxCell>
        <mxCell id="aoM_VOd6xSWKAF-DBPvm-560" value="" style="swimlane;startSize=0;fontFamily=Times New Roman;fontSize=14;strokeColor=#CC0000;" vertex="1" parent="1">
          <mxGeometry x="500" y="2990" width="180" height="680" as="geometry" />
        </mxCell>
        <mxCell id="aoM_VOd6xSWKAF-DBPvm-561" value="" style="swimlane;startSize=0;fontFamily=Times New Roman;fontSize=14;strokeColor=#CC0000;" vertex="1" parent="1">
          <mxGeometry x="680" y="2990" width="180" height="680" as="geometry" />
        </mxCell>
        <mxCell id="aoM_VOd6xSWKAF-DBPvm-562" value="" style="swimlane;startSize=0;fontFamily=Times New Roman;fontSize=14;strokeColor=#CC0000;" vertex="1" parent="1">
          <mxGeometry x="860" y="2990" width="180" height="680" as="geometry" />
        </mxCell>
        <mxCell id="aoM_VOd6xSWKAF-DBPvm-563" value="" style="swimlane;startSize=0;fontFamily=Times New Roman;fontSize=14;strokeColor=#CC0000;" vertex="1" parent="1">
          <mxGeometry x="1040" y="2990" width="230" height="680" as="geometry" />
        </mxCell>
        <mxCell id="aoM_VOd6xSWKAF-DBPvm-564" value="" style="swimlane;startSize=0;fontFamily=Times New Roman;fontSize=14;strokeColor=#CC0000;" vertex="1" parent="1">
          <mxGeometry x="1270" y="2990" width="190" height="680" as="geometry" />
        </mxCell>
        <mxCell id="aoM_VOd6xSWKAF-DBPvm-565" value="" style="swimlane;startSize=0;fontFamily=Times New Roman;fontSize=14;strokeColor=#CC0000;" vertex="1" parent="1">
          <mxGeometry x="1460" y="2990" width="190" height="680" as="geometry" />
        </mxCell>
        <mxCell id="aoM_VOd6xSWKAF-DBPvm-566" value="" style="swimlane;startSize=0;fontFamily=Times New Roman;fontSize=14;strokeColor=#CC0000;" vertex="1" parent="1">
          <mxGeometry x="1650" y="2990" width="520" height="680" as="geometry" />
        </mxCell>
        <mxCell id="aoM_VOd6xSWKAF-DBPvm-567" value="" style="swimlane;startSize=0;fontFamily=Times New Roman;fontSize=14;strokeColor=#CC0000;" vertex="1" parent="1">
          <mxGeometry x="2170" y="2990" width="840" height="680" as="geometry" />
        </mxCell>
        <mxCell id="aoM_VOd6xSWKAF-DBPvm-584" value="Организовать обучение стажера" style="whiteSpace=wrap;html=1;fontSize=14;fontFamily=Times New Roman;fillColor=#FFFFFF;strokeColor=#000000;fontColor=#000000;rounded=1;" vertex="1" parent="aoM_VOd6xSWKAF-DBPvm-567">
          <mxGeometry x="330" y="90" width="120" height="60" as="geometry" />
        </mxCell>
        <mxCell id="aoM_VOd6xSWKAF-DBPvm-568" value="" style="swimlane;startSize=0;fontFamily=Times New Roman;fontSize=14;strokeColor=#CC0000;" vertex="1" parent="1">
          <mxGeometry x="3010" y="2990" width="190" height="680" as="geometry" />
        </mxCell>
        <mxCell id="aoM_VOd6xSWKAF-DBPvm-569" value="" style="swimlane;startSize=0;fontFamily=Times New Roman;fontSize=14;strokeColor=#CC0000;" vertex="1" parent="1">
          <mxGeometry x="3200" y="2990" width="670" height="680" as="geometry" />
        </mxCell>
        <mxCell id="aoM_VOd6xSWKAF-DBPvm-570" value="" style="swimlane;startSize=0;fontFamily=Times New Roman;fontSize=14;strokeColor=#CC0000;" vertex="1" parent="1">
          <mxGeometry x="3870" y="2990" width="190" height="680" as="geometry" />
        </mxCell>
        <mxCell id="aoM_VOd6xSWKAF-DBPvm-571" value="" style="swimlane;startSize=0;fontFamily=Times New Roman;fontSize=14;strokeColor=#CC0000;" vertex="1" parent="1">
          <mxGeometry x="4060" y="2990" width="280" height="680" as="geometry" />
        </mxCell>
        <mxCell id="aoM_VOd6xSWKAF-DBPvm-572" value="" style="swimlane;startSize=0;fontFamily=Times New Roman;fontSize=14;strokeColor=#CC0000;" vertex="1" parent="1">
          <mxGeometry x="4340" y="2990" width="260" height="680" as="geometry" />
        </mxCell>
        <mxCell id="aoM_VOd6xSWKAF-DBPvm-579" value="Согласовать количество сотрудников в КР на год" style="rounded=1;whiteSpace=wrap;html=1;fontFamily=Times New Roman;fontSize=14;fontColor=#000000;strokeColor=#000000;fillColor=#FFFFFF;" vertex="1" parent="aoM_VOd6xSWKAF-DBPvm-572">
          <mxGeometry x="70" y="20" width="120" height="80" as="geometry" />
        </mxCell>
        <mxCell id="aoM_VOd6xSWKAF-DBPvm-573" value="" style="swimlane;startSize=0;fontFamily=Times New Roman;fontSize=14;strokeColor=#CC0000;" vertex="1" parent="1">
          <mxGeometry x="4600" y="2990" width="230" height="680" as="geometry" />
        </mxCell>
        <mxCell id="aoM_VOd6xSWKAF-DBPvm-574" value="" style="swimlane;startSize=0;fontFamily=Times New Roman;fontSize=14;strokeColor=#CC0000;" vertex="1" parent="1">
          <mxGeometry x="4830" y="2990" width="190" height="680" as="geometry" />
        </mxCell>
        <mxCell id="aoM_VOd6xSWKAF-DBPvm-580" value="Рекомендовать сотрудников на обучение в КР" style="whiteSpace=wrap;html=1;fontSize=14;fontFamily=Times New Roman;fillColor=#FFFFFF;strokeColor=#000000;fontColor=#000000;rounded=1;" vertex="1" parent="aoM_VOd6xSWKAF-DBPvm-574">
          <mxGeometry x="30" y="30" width="120" height="60" as="geometry" />
        </mxCell>
        <mxCell id="aoM_VOd6xSWKAF-DBPvm-575" value="" style="swimlane;startSize=0;fontFamily=Times New Roman;fontSize=14;strokeColor=#CC0000;" vertex="1" parent="1">
          <mxGeometry x="5020" y="2990" width="190" height="680" as="geometry" />
        </mxCell>
        <mxCell id="aoM_VOd6xSWKAF-DBPvm-576" value="" style="swimlane;startSize=0;fontFamily=Times New Roman;fontSize=14;strokeColor=#CC0000;" vertex="1" parent="1">
          <mxGeometry x="5210" y="2990" width="190" height="680" as="geometry" />
        </mxCell>
        <mxCell id="aoM_VOd6xSWKAF-DBPvm-577" value="" style="swimlane;startSize=0;fontFamily=Times New Roman;fontSize=14;strokeColor=#CC0000;" vertex="1" parent="1">
          <mxGeometry x="5400" y="2990" width="190" height="680" as="geometry" />
        </mxCell>
        <mxCell id="aoM_VOd6xSWKAF-DBPvm-578" value="" style="swimlane;startSize=0;fontFamily=Times New Roman;fontSize=14;strokeColor=#CC0000;" vertex="1" parent="1">
          <mxGeometry x="5590" y="2990" width="160" height="680" as="geometry" />
        </mxCell>
        <mxCell id="aoM_VOd6xSWKAF-DBPvm-581" value="" style="edgeStyle=orthogonalEdgeStyle;rounded=0;orthogonalLoop=1;jettySize=auto;html=1;fontFamily=Times New Roman;fontSize=14;fontColor=#000000;strokeColor=#00FFFF;" edge="1" parent="1" source="aoM_VOd6xSWKAF-DBPvm-579" target="aoM_VOd6xSWKAF-DBPvm-580">
          <mxGeometry relative="1" as="geometry" />
        </mxCell>
        <mxCell id="aoM_VOd6xSWKAF-DBPvm-583" value="" style="edgeStyle=orthogonalEdgeStyle;rounded=0;orthogonalLoop=1;jettySize=auto;html=1;fontFamily=Times New Roman;fontSize=14;fontColor=#000000;strokeColor=#00FFFF;" edge="1" parent="1" source="aoM_VOd6xSWKAF-DBPvm-579" target="aoM_VOd6xSWKAF-DBPvm-582">
          <mxGeometry relative="1" as="geometry">
            <Array as="points">
              <mxPoint x="2150" y="3050" />
              <mxPoint x="2150" y="3050" />
            </Array>
          </mxGeometry>
        </mxCell>
        <mxCell id="aoM_VOd6xSWKAF-DBPvm-585" value="" style="edgeStyle=orthogonalEdgeStyle;rounded=0;orthogonalLoop=1;jettySize=auto;html=1;fontFamily=Times New Roman;fontSize=14;fontColor=#000000;strokeColor=#00FFFF;" edge="1" parent="1" source="aoM_VOd6xSWKAF-DBPvm-582" target="aoM_VOd6xSWKAF-DBPvm-584">
          <mxGeometry relative="1" as="geometry">
            <Array as="points">
              <mxPoint x="290" y="3110" />
            </Array>
          </mxGeometry>
        </mxCell>
      </root>
    </mxGraphModel>
  </diagram>
</mxfile>
